M48
; DRILL file {KiCad 9.0.2} date 2025-10-13T16:39:18+0530
; FORMAT={-:-/ absolute / metric / decimal}
; #@! TF.CreationDate,2025-10-13T16:39:18+05:30
; #@! TF.GenerationSoftware,Kicad,Pcbnew,9.0.2
; #@! TF.FileFunction,Plated,1,2,PTH
FMAT,2
METRIC
; #@! TA.AperFunction,Plated,PTH,ViaDrill
T1C0.400
; #@! TA.AperFunction,Plated,PTH,ComponentDrill
T2C0.400
; #@! TA.AperFunction,Plated,PTH,ComponentDrill
T3C0.600
; #@! TA.AperFunction,Plated,PTH,ComponentDrill
T4C0.762
; #@! TA.AperFunction,Plated,PTH,ComponentDrill
T5C0.800
; #@! TA.AperFunction,Plated,PTH,ComponentDrill
T6C1.000
%
G90
G05
T1
X2.692Y22.555
X2.692Y21.692
X2.692Y20.828
X2.692Y19.964
X3.202Y6.572
X3.815Y23.383
X5.777Y21.762
X5.817Y8.46
X6.499Y64.896
X6.614Y16.744
X6.655Y8.46
X6.697Y65.866
X6.909Y10.566
X6.96Y11.532
X7.344Y29.359
X7.391Y64.465
X7.468Y61.773
X7.518Y8.46
X7.569Y26.137
X7.664Y31.198
X7.722Y10.998
X7.849Y27.94
X8.274Y31.807
X8.597Y28.659
X8.883Y32.417
X9.525Y33.008
X9.601Y2.946
X9.87Y52.65
X9.87Y35.15
X9.982Y19.514
X10.185Y2.362
X10.782Y1.765
X10.897Y54.254
X11.09Y16.38
X11.151Y10.998
X11.379Y1.168
X11.75Y27.45
X11.76Y54.254
X12.34Y21.043
X12.459Y18.618
X12.522Y19.684
X12.624Y54.254
X12.625Y42.34
X12.995Y43.331
X13.29Y16.38
X13.296Y32.842
X13.31Y11.024
X13.31Y9.222
X13.364Y44.318
X13.535Y38.447
X13.68Y35.15
X13.97Y19.684
X14.031Y45.161
X14.109Y18.618
X14.287Y33.005
X14.356Y54.268
X14.427Y9.296
X14.462Y38.098
X14.478Y56.007
X14.95Y35.15
X15.078Y48.354
X15.186Y32.291
X15.189Y29.134
X15.265Y49.327
X15.334Y54.424
X15.399Y37.684
X15.469Y9.273
X15.49Y16.38
X15.494Y11.074
X15.967Y47.668
X16.19Y43.8
X16.19Y42.4
X16.19Y41.0
X16.22Y52.65
X16.22Y35.15
X16.29Y49.397
X16.408Y37.617
X16.568Y30.313
X16.75Y27.45
X17.252Y33.684
X17.329Y7.379
X17.59Y43.8
X17.59Y42.4
X17.59Y41.0
X17.907Y56.921
X17.941Y23.571
X17.975Y70.74
X17.975Y68.54
X17.975Y66.34
X17.975Y64.14
X17.975Y61.94
X18.242Y82.657
X18.288Y81.001
X18.309Y24.51
X18.339Y81.813
X18.415Y31.415
X18.54Y33.041
X18.644Y80.213
X18.759Y25.46
X18.99Y43.8
X18.99Y42.4
X18.99Y41.0
X18.99Y15.78
X18.99Y6.28
X18.991Y23.66
X19.202Y79.527
X19.273Y26.981
X19.404Y24.65
X19.583Y26.01
X19.866Y78.982
X20.175Y70.74
X20.175Y68.54
X20.175Y66.34
X20.175Y64.14
X20.175Y61.94
X20.325Y58.59
X20.472Y82.398
X20.498Y30.429
X20.523Y78.384
X20.574Y81.559
X20.71Y47.104
X20.828Y46.076
X20.879Y45.063
X21.137Y77.73
X21.158Y80.95
X21.55Y76.643
X21.564Y47.605
X21.717Y80.34
X21.726Y15.13
X21.742Y75.616
X21.81Y14.143
X22.104Y37.799
X22.251Y46.157
X22.276Y49.936
X22.301Y79.756
X22.375Y70.74
X22.375Y68.54
X22.375Y66.34
X22.375Y64.14
X22.375Y61.94
X22.76Y31.776
X22.784Y38.659
X22.784Y32.766
X22.86Y79.146
X22.865Y58.59
X22.93Y47.517
X23.058Y49.329
X23.22Y22.414
X23.239Y46.089
X23.463Y33.567
X23.47Y78.486
X23.484Y39.359
X23.814Y49.968
X23.851Y75.971
X23.901Y76.81
X23.92Y47.517
X23.927Y77.724
X24.183Y21.893
X24.391Y45.898
X24.453Y3.959
X24.533Y38.31
X24.533Y49.255
X24.626Y54.712
X25.055Y40.756
X25.121Y36.9
X25.172Y21.946
X25.192Y33.277
X25.415Y3.52
X25.598Y22.84
X25.862Y37.826
X26.16Y26.001
X26.164Y36.883
X26.625Y22.789
X26.839Y24.446
X27.2Y3.657
X27.47Y31.849
X27.534Y30.861
X27.63Y47.075
X27.63Y45.805
X27.63Y44.535
X27.63Y41.995
X27.63Y36.915
X27.834Y32.77
X27.915Y2.972
X27.915Y1.981
X27.945Y58.59
X27.945Y57.709
X27.945Y56.845
X28.109Y24.446
X28.397Y56.147
X28.473Y53.022
X28.554Y21.133
X28.975Y70.74
X28.975Y68.54
X28.975Y66.34
X28.975Y64.14
X28.975Y61.94
X29.172Y17.018
X29.379Y24.446
X30.485Y58.59
X30.649Y24.446
X30.683Y54.32
X30.836Y15.57
X31.175Y70.74
X31.175Y68.54
X31.175Y66.34
X31.175Y64.14
X31.175Y61.94
X31.344Y12.568
X31.536Y43.358
X31.628Y34.138
X31.636Y31.953
X31.72Y13.485
X31.932Y42.397
X32.029Y45.466
X32.603Y55.764
X32.731Y41.598
X32.892Y52.078
X32.954Y53.1
X33.025Y74.09
X33.045Y44.704
X33.337Y11.024
X33.424Y54.46
X34.011Y31.684
X34.036Y44.704
X34.087Y40.513
X34.569Y57.785
X34.971Y38.02
X35.23Y44.526
X35.382Y56.058
X35.56Y53.746
X35.879Y42.418
X36.195Y34.138
X36.268Y5.689
X36.906Y33.503
X36.932Y55.753
X37.109Y29.655
X37.236Y6.274
X37.416Y86.563
X37.534Y61.937
X37.567Y40.437
X37.567Y32.893
X37.903Y63.297
X37.948Y78.791
X38.202Y32.283
X38.837Y56.109
X38.851Y36.453
X38.887Y17.78
X38.929Y38.786
X39.262Y61.868
X39.266Y40.898
X39.268Y6.273
X39.291Y86.563
X39.522Y57.734
X39.771Y66.274
X39.776Y17.78
X39.845Y54.707
X39.925Y77.232
X40.011Y75.219
X40.058Y52.782
X40.259Y3.734
X40.716Y17.78
X41.097Y40.132
X41.529Y17.78
X41.58Y43.402
X42.901Y71.78
X43.026Y58.812
X43.544Y56.895
X43.716Y78.87
X43.792Y12.878
X43.792Y11.963
X43.792Y11.125
X43.792Y10.277
X44.265Y57.574
X44.313Y78.273
X44.579Y75.328
X44.958Y77.629
X45.979Y70.928
X45.979Y67.128
X45.979Y63.328
X45.979Y59.528
X45.979Y55.728
X46.545Y24.816
X46.621Y14.707
X47.117Y22.01
X47.117Y19.71
X47.292Y41.656
X47.292Y40.792
X47.292Y39.874
X47.579Y51.328
X47.701Y78.41
X48.732Y81.105
X48.843Y77.304
X48.933Y79.088
X49.779Y70.928
X49.779Y63.328
X49.779Y55.728
X50.903Y43.942
X51.537Y34.114
X52.512Y33.563
X52.519Y63.94
X52.553Y76.403
X52.578Y77.318
X52.579Y75.328
X52.629Y78.232
X52.858Y79.118
X53.121Y32.954
X53.442Y79.781
X53.579Y70.928
X53.579Y67.128
X53.579Y59.528
X53.579Y55.728
X53.658Y24.816
X53.734Y14.707
X54.076Y80.399
X54.579Y76.53
X54.579Y75.328
X54.585Y77.546
X54.712Y80.975
X54.737Y41.631
X54.894Y2.212
X54.979Y62.47
X55.143Y78.359
X55.315Y81.638
X55.333Y71.873
X55.333Y71.018
X55.333Y70.155
X55.712Y79.021
X55.804Y69.318
X55.967Y82.23
X56.312Y79.654
X56.452Y10.312
X56.566Y1.813
X56.57Y41.605
X56.591Y75.328
X56.64Y15.697
X56.972Y80.213
X57.112Y19.964
X57.138Y18.339
X57.199Y29.845
X57.279Y43.967
X57.379Y70.928
X57.379Y63.328
X57.379Y55.728
X57.523Y80.903
X57.531Y75.328
X57.579Y51.328
X58.166Y81.585
X58.332Y19.207
X58.369Y82.372
X58.369Y13.056
X58.395Y41.605
X58.395Y39.497
X58.471Y75.328
X58.541Y61.119
X58.547Y77.14
X59.016Y3.727
X59.385Y61.651
X59.582Y48.447
X59.75Y27.45
X59.867Y3.58
X60.042Y2.581
X60.091Y47.597
X60.289Y49.663
X60.411Y11.559
X60.471Y19.18
X60.481Y20.17
X60.579Y51.328
X61.091Y14.056
X61.179Y70.928
X61.179Y67.128
X61.179Y63.328
X61.179Y59.528
X61.179Y55.728
X61.457Y19.082
X61.77Y13.201
X62.224Y1.865
X62.579Y75.328
X62.992Y3.505
X63.024Y2.449
X63.379Y64.028
X63.409Y12.929
X63.579Y75.328
X64.579Y75.328
X65.049Y36.5
X65.133Y35.455
X65.507Y15.824
X65.94Y37.289
X66.352Y25.197
X66.943Y29.732
X67.615Y71.12
X67.898Y34.978
X68.086Y27.827
X68.601Y71.033
X68.627Y78.084
X69.469Y16.967
X71.085Y7.468
X71.144Y20.689
X71.196Y15.518
X73.025Y15.518
X73.085Y7.468
X73.508Y36.286
X73.736Y47.0
T2
X52.934Y22.25
X52.934Y20.726
X52.934Y19.71
X52.934Y18.694
X52.934Y17.17
X53.442Y21.488
X53.442Y17.932
X53.95Y22.25
X53.95Y20.726
X53.95Y19.71
X53.95Y18.694
X53.95Y17.17
X54.872Y35.234
X54.872Y33.934
X55.872Y35.234
X55.872Y33.934
X56.872Y35.234
X56.872Y33.934
X62.306Y33.655
X62.306Y32.131
X62.814Y32.893
X63.322Y33.655
X63.322Y32.131
X71.076Y11.659
X71.076Y10.259
X72.076Y11.659
X72.076Y10.259
X73.076Y11.659
X73.076Y10.259
T4
X21.84Y10.67
X21.84Y8.13
X21.84Y5.59
X29.46Y10.67
X29.46Y8.13
X29.46Y5.59
T5
X70.958Y18.136
X72.958Y18.136
T6
X3.5Y75.54
X3.5Y73.0
X3.5Y70.46
X3.5Y67.92
X3.5Y65.38
X3.5Y62.84
X3.5Y60.3
X70.714Y4.826
X70.714Y2.286
X71.857Y42.926
X71.857Y40.426
X72.238Y25.792
X72.238Y23.292
X73.05Y75.54
X73.05Y73.0
X73.05Y70.46
X73.05Y67.92
X73.05Y65.38
X73.05Y62.84
X73.254Y4.826
X73.254Y2.286
T3
G00X33.93Y8.05
M15
G01X33.93Y6.95
M16
G05
G00X33.93Y3.62
M15
G01X33.93Y3.02
M16
G05
G00X42.57Y8.05
M15
G01X42.57Y6.95
M16
G05
G00X42.57Y3.62
M15
G01X42.57Y3.02
M16
G05
M30
