G04 #@! TF.GenerationSoftware,KiCad,Pcbnew,9.0.2*
G04 #@! TF.CreationDate,2025-10-13T16:39:08+05:30*
G04 #@! TF.ProjectId,V12A_LH,56313241-5f4c-4482-9e6b-696361645f70,rev?*
G04 #@! TF.SameCoordinates,Original*
G04 #@! TF.FileFunction,Paste,Top*
G04 #@! TF.FilePolarity,Positive*
%FSLAX46Y46*%
G04 Gerber Fmt 4.6, Leading zero omitted, Abs format (unit mm)*
G04 Created by KiCad (PCBNEW 9.0.2) date 2025-10-13 16:39:08*
%MOMM*%
%LPD*%
G01*
G04 APERTURE LIST*
G04 Aperture macros list*
%AMRoundRect*
0 Rectangle with rounded corners*
0 $1 Rounding radius*
0 $2 $3 $4 $5 $6 $7 $8 $9 X,Y pos of 4 corners*
0 Add a 4 corners polygon primitive as box body*
4,1,4,$2,$3,$4,$5,$6,$7,$8,$9,$2,$3,0*
0 Add four circle primitives for the rounded corners*
1,1,$1+$1,$2,$3*
1,1,$1+$1,$4,$5*
1,1,$1+$1,$6,$7*
1,1,$1+$1,$8,$9*
0 Add four rect primitives between the rounded corners*
20,1,$1+$1,$2,$3,$4,$5,0*
20,1,$1+$1,$4,$5,$6,$7,0*
20,1,$1+$1,$6,$7,$8,$9,0*
20,1,$1+$1,$8,$9,$2,$3,0*%
%AMOutline5P*
0 Free polygon, 5 corners , with rotation*
0 The origin of the aperture is its center*
0 number of corners: always 5*
0 $1 to $10 corner X, Y*
0 $11 Rotation angle, in degrees counterclockwise*
0 create outline with 5 corners*
4,1,5,$1,$2,$3,$4,$5,$6,$7,$8,$9,$10,$1,$2,$11*%
%AMOutline6P*
0 Free polygon, 6 corners , with rotation*
0 The origin of the aperture is its center*
0 number of corners: always 6*
0 $1 to $12 corner X, Y*
0 $13 Rotation angle, in degrees counterclockwise*
0 create outline with 6 corners*
4,1,6,$1,$2,$3,$4,$5,$6,$7,$8,$9,$10,$11,$12,$1,$2,$13*%
%AMOutline7P*
0 Free polygon, 7 corners , with rotation*
0 The origin of the aperture is its center*
0 number of corners: always 7*
0 $1 to $14 corner X, Y*
0 $15 Rotation angle, in degrees counterclockwise*
0 create outline with 7 corners*
4,1,7,$1,$2,$3,$4,$5,$6,$7,$8,$9,$10,$11,$12,$13,$14,$1,$2,$15*%
%AMOutline8P*
0 Free polygon, 8 corners , with rotation*
0 The origin of the aperture is its center*
0 number of corners: always 8*
0 $1 to $16 corner X, Y*
0 $17 Rotation angle, in degrees counterclockwise*
0 create outline with 8 corners*
4,1,8,$1,$2,$3,$4,$5,$6,$7,$8,$9,$10,$11,$12,$13,$14,$15,$16,$1,$2,$17*%
G04 Aperture macros list end*
%ADD10R,1.500000X2.000000*%
%ADD11RoundRect,0.250000X-0.159099X0.512652X-0.512652X0.159099X0.159099X-0.512652X0.512652X-0.159099X0*%
%ADD12RoundRect,0.250000X-0.450000X0.262500X-0.450000X-0.262500X0.450000X-0.262500X0.450000X0.262500X0*%
%ADD13RoundRect,0.250000X-0.350000X-0.450000X0.350000X-0.450000X0.350000X0.450000X-0.350000X0.450000X0*%
%ADD14O,2.000000X0.600000*%
%ADD15O,0.600000X2.000000*%
%ADD16R,2.100000X2.100000*%
%ADD17R,1.100000X0.900000*%
%ADD18R,0.900000X1.100000*%
%ADD19RoundRect,0.250000X0.475000X-0.250000X0.475000X0.250000X-0.475000X0.250000X-0.475000X-0.250000X0*%
%ADD20RoundRect,0.218750X-0.381250X0.218750X-0.381250X-0.218750X0.381250X-0.218750X0.381250X0.218750X0*%
%ADD21RoundRect,0.200000X-0.275000X0.200000X-0.275000X-0.200000X0.275000X-0.200000X0.275000X0.200000X0*%
%ADD22RoundRect,0.237500X0.237500X-0.250000X0.237500X0.250000X-0.237500X0.250000X-0.237500X-0.250000X0*%
%ADD23RoundRect,0.200000X0.200000X0.275000X-0.200000X0.275000X-0.200000X-0.275000X0.200000X-0.275000X0*%
%ADD24RoundRect,0.250000X-0.262500X-0.450000X0.262500X-0.450000X0.262500X0.450000X-0.262500X0.450000X0*%
%ADD25RoundRect,0.225000X0.225000X0.250000X-0.225000X0.250000X-0.225000X-0.250000X0.225000X-0.250000X0*%
%ADD26RoundRect,0.150000X-0.150000X0.587500X-0.150000X-0.587500X0.150000X-0.587500X0.150000X0.587500X0*%
%ADD27O,0.800000X2.500000*%
%ADD28O,2.500000X0.800000*%
%ADD29R,1.000000X1.000000*%
%ADD30Outline5P,-0.500000X0.500000X0.500000X0.500000X0.500000X0.000000X0.000000X-0.500000X-0.500000X-0.500000X90.000000*%
%ADD31Outline5P,-0.500000X0.500000X0.500000X0.500000X0.500000X-0.500000X0.000000X-0.500000X-0.500000X0.000000X90.000000*%
%ADD32Outline5P,-0.500000X0.500000X0.000000X0.500000X0.500000X0.000000X0.500000X-0.500000X-0.500000X-0.500000X90.000000*%
%ADD33Outline5P,-0.500000X0.000000X0.000000X0.500000X0.500000X0.500000X0.500000X-0.500000X-0.500000X-0.500000X90.000000*%
%ADD34RoundRect,0.237500X0.250000X0.237500X-0.250000X0.237500X-0.250000X-0.237500X0.250000X-0.237500X0*%
%ADD35RoundRect,0.250000X-0.650000X1.000000X-0.650000X-1.000000X0.650000X-1.000000X0.650000X1.000000X0*%
%ADD36RoundRect,0.250000X1.950000X1.000000X-1.950000X1.000000X-1.950000X-1.000000X1.950000X-1.000000X0*%
%ADD37RoundRect,0.150000X0.587500X0.150000X-0.587500X0.150000X-0.587500X-0.150000X0.587500X-0.150000X0*%
%ADD38RoundRect,0.250000X0.250000X0.475000X-0.250000X0.475000X-0.250000X-0.475000X0.250000X-0.475000X0*%
%ADD39RoundRect,0.250000X0.420000X-0.275000X0.420000X0.275000X-0.420000X0.275000X-0.420000X-0.275000X0*%
%ADD40RoundRect,0.150000X0.150000X-0.662500X0.150000X0.662500X-0.150000X0.662500X-0.150000X-0.662500X0*%
%ADD41RoundRect,0.200000X-0.200000X-0.275000X0.200000X-0.275000X0.200000X0.275000X-0.200000X0.275000X0*%
%ADD42R,1.270000X3.600000*%
%ADD43R,1.350000X4.200000*%
%ADD44R,0.900000X1.500000*%
%ADD45R,1.500000X0.900000*%
%ADD46R,0.900000X0.900000*%
%ADD47RoundRect,0.225000X-0.250000X0.225000X-0.250000X-0.225000X0.250000X-0.225000X0.250000X0.225000X0*%
%ADD48RoundRect,0.200000X-0.335876X-0.053033X-0.053033X-0.335876X0.335876X0.053033X0.053033X0.335876X0*%
%ADD49RoundRect,0.240000X-0.385000X0.240000X-0.385000X-0.240000X0.385000X-0.240000X0.385000X0.240000X0*%
%ADD50RoundRect,0.150000X-0.150000X0.825000X-0.150000X-0.825000X0.150000X-0.825000X0.150000X0.825000X0*%
%ADD51RoundRect,0.250000X-0.650000X0.325000X-0.650000X-0.325000X0.650000X-0.325000X0.650000X0.325000X0*%
%ADD52RoundRect,0.250000X-0.412500X-0.650000X0.412500X-0.650000X0.412500X0.650000X-0.412500X0.650000X0*%
%ADD53RoundRect,0.225000X0.017678X-0.335876X0.335876X-0.017678X-0.017678X0.335876X-0.335876X0.017678X0*%
%ADD54RoundRect,0.250000X0.070711X-0.565685X0.565685X-0.070711X-0.070711X0.565685X-0.565685X0.070711X0*%
%ADD55RoundRect,0.250000X-1.950000X-1.000000X1.950000X-1.000000X1.950000X1.000000X-1.950000X1.000000X0*%
%ADD56RoundRect,0.218750X0.381250X-0.218750X0.381250X0.218750X-0.381250X0.218750X-0.381250X-0.218750X0*%
%ADD57R,5.700000X2.400000*%
%ADD58RoundRect,0.250000X-0.325000X-0.650000X0.325000X-0.650000X0.325000X0.650000X-0.325000X0.650000X0*%
%ADD59RoundRect,0.250000X-0.475000X0.250000X-0.475000X-0.250000X0.475000X-0.250000X0.475000X0.250000X0*%
%ADD60RoundRect,0.243750X-0.243750X-0.456250X0.243750X-0.456250X0.243750X0.456250X-0.243750X0.456250X0*%
%ADD61RoundRect,0.225000X0.335876X0.017678X0.017678X0.335876X-0.335876X-0.017678X-0.017678X-0.335876X0*%
%ADD62RoundRect,0.200000X-0.053033X0.335876X-0.335876X0.053033X0.053033X-0.335876X0.335876X-0.053033X0*%
%ADD63RoundRect,0.250000X-0.450000X0.350000X-0.450000X-0.350000X0.450000X-0.350000X0.450000X0.350000X0*%
%ADD64RoundRect,0.125000X0.000000X-0.176777X0.176777X0.000000X0.000000X0.176777X-0.176777X0.000000X0*%
%ADD65RoundRect,0.062500X-0.355321X-0.443710X0.443710X0.355321X0.355321X0.443710X-0.443710X-0.355321X0*%
%ADD66RoundRect,0.062500X0.355321X-0.443710X0.443710X-0.355321X-0.355321X0.443710X-0.443710X0.355321X0*%
%ADD67RoundRect,0.250000X-0.475000X0.337500X-0.475000X-0.337500X0.475000X-0.337500X0.475000X0.337500X0*%
%ADD68RoundRect,0.250000X0.159099X-0.512652X0.512652X-0.159099X-0.159099X0.512652X-0.512652X0.159099X0*%
%ADD69RoundRect,0.250000X0.262500X0.450000X-0.262500X0.450000X-0.262500X-0.450000X0.262500X-0.450000X0*%
%ADD70RoundRect,0.150000X-0.587500X-0.150000X0.587500X-0.150000X0.587500X0.150000X-0.587500X0.150000X0*%
%ADD71RoundRect,0.150000X-0.150000X0.512500X-0.150000X-0.512500X0.150000X-0.512500X0.150000X0.512500X0*%
%ADD72R,0.600000X1.450000*%
%ADD73R,0.300000X1.450000*%
%ADD74RoundRect,0.250000X0.450000X-0.262500X0.450000X0.262500X-0.450000X0.262500X-0.450000X-0.262500X0*%
%ADD75RoundRect,0.250000X0.325000X0.650000X-0.325000X0.650000X-0.325000X-0.650000X0.325000X-0.650000X0*%
%ADD76RoundRect,0.250000X1.000000X0.650000X-1.000000X0.650000X-1.000000X-0.650000X1.000000X-0.650000X0*%
%ADD77R,4.500000X2.000000*%
%ADD78R,2.200000X1.500000*%
%ADD79RoundRect,0.250000X-0.650000X0.412500X-0.650000X-0.412500X0.650000X-0.412500X0.650000X0.412500X0*%
%ADD80RoundRect,0.375000X-0.625000X-0.375000X0.625000X-0.375000X0.625000X0.375000X-0.625000X0.375000X0*%
%ADD81RoundRect,0.500000X-0.500000X-2.550000X0.500000X-2.550000X0.500000X2.550000X-0.500000X2.550000X0*%
%ADD82RoundRect,0.237500X-0.250000X-0.237500X0.250000X-0.237500X0.250000X0.237500X-0.250000X0.237500X0*%
G04 APERTURE END LIST*
D10*
G04 #@! TO.C,SW3*
X64750000Y27450000D03*
X59750000Y27450000D03*
X64750000Y13150000D03*
X59750000Y13150000D03*
G04 #@! TD*
D11*
G04 #@! TO.C,C43*
X68286551Y31075551D03*
X66943049Y29732049D03*
G04 #@! TD*
D12*
G04 #@! TO.C,R53*
X50893400Y39877200D03*
X50893400Y38052200D03*
G04 #@! TD*
D13*
G04 #@! TO.C,R31*
X58334400Y2489200D03*
X60334400Y2489200D03*
G04 #@! TD*
D14*
G04 #@! TO.C,IC1*
X41578600Y71327600D03*
X41578600Y70327600D03*
X41578600Y69327600D03*
X41578600Y68327600D03*
X41578600Y67327600D03*
X41578600Y66327600D03*
X41578600Y65327600D03*
X41578600Y64327600D03*
X41578600Y63327600D03*
X41578600Y62327600D03*
X41578600Y61327600D03*
X41578600Y60327600D03*
X41578600Y59327600D03*
X41578600Y58327600D03*
X41578600Y57327600D03*
X41578600Y56327600D03*
X41578600Y55327600D03*
D15*
X45578600Y51327600D03*
X46578600Y51327600D03*
X47578600Y51327600D03*
X48578600Y51327600D03*
X49578600Y51327600D03*
X50578600Y51327600D03*
X51578600Y51327600D03*
X52578600Y51327600D03*
X53578600Y51327600D03*
X54578600Y51327600D03*
X55578600Y51327600D03*
X56578600Y51327600D03*
X57578600Y51327600D03*
X58578600Y51327600D03*
X59578600Y51327600D03*
X60578600Y51327600D03*
X61578600Y51327600D03*
D14*
X65578600Y55327600D03*
X65578600Y56327600D03*
X65578600Y57327600D03*
X65578600Y58327600D03*
X65578600Y59327600D03*
X65578600Y60327600D03*
X65578600Y61327600D03*
X65578600Y62327600D03*
X65578600Y63327600D03*
X65578600Y64327600D03*
X65578600Y65327600D03*
X65578600Y66327600D03*
X65578600Y67327600D03*
X65578600Y68327600D03*
X65578600Y69327600D03*
X65578600Y70327600D03*
X65578600Y71327600D03*
D15*
X61578600Y75327600D03*
X60578600Y75327600D03*
X59578600Y75327600D03*
X58578600Y75327600D03*
X57578600Y75327600D03*
X56578600Y75327600D03*
X55578600Y75327600D03*
X54578600Y75327600D03*
X53578600Y75327600D03*
X52578600Y75327600D03*
X51578600Y75327600D03*
X50578600Y75327600D03*
X49578600Y75327600D03*
X48578600Y75327600D03*
X47578600Y75327600D03*
X46578600Y75327600D03*
X45578600Y75327600D03*
D16*
X45978600Y70927600D03*
X45978600Y67127600D03*
X45978600Y63327600D03*
X45978600Y59527600D03*
X45978600Y55727600D03*
X49778600Y55727600D03*
X53578600Y55727600D03*
X57378600Y55727600D03*
X61178600Y55727600D03*
X61178600Y59527600D03*
X61178600Y63327600D03*
X61178600Y67127600D03*
X61178600Y70927600D03*
X57378600Y70927600D03*
X53578600Y70927600D03*
X49778600Y70927600D03*
X49778600Y63327600D03*
X53578600Y59527600D03*
X57378600Y63327600D03*
X53578600Y67127600D03*
D15*
X42578600Y51327600D03*
X43578600Y51327600D03*
X44578600Y51327600D03*
X62578600Y51327600D03*
X63578600Y51327600D03*
X64578600Y51327600D03*
X64578600Y75327600D03*
X63578600Y75327600D03*
X62578600Y75327600D03*
X44578600Y75327600D03*
X43578600Y75327600D03*
X42578600Y75327600D03*
D17*
X43778600Y66827600D03*
X43778600Y65427600D03*
X43778600Y64027600D03*
X43778600Y62627600D03*
X43778600Y61227600D03*
X43778600Y59827600D03*
D18*
X50078600Y53527600D03*
X51478600Y53527600D03*
X52878600Y53527600D03*
X54278600Y53527600D03*
X55678600Y53527600D03*
X57078600Y53527600D03*
D17*
X63378600Y59827600D03*
X63378600Y61227600D03*
X63378600Y62627600D03*
X63378600Y64027600D03*
X63378600Y65427600D03*
X63378600Y66827600D03*
D18*
X57078600Y73127600D03*
X55678600Y73127600D03*
X54278600Y73127600D03*
X52878600Y73127600D03*
X51478600Y73127600D03*
X50078600Y73127600D03*
G04 #@! TD*
D19*
G04 #@! TO.C,C39*
X59859600Y35156600D03*
X59859600Y37056600D03*
G04 #@! TD*
D20*
G04 #@! TO.C,FB2*
X71374000Y38222700D03*
X71374000Y36097700D03*
G04 #@! TD*
D21*
G04 #@! TO.C,R33*
X37109400Y31305000D03*
X37109400Y29655000D03*
G04 #@! TD*
D22*
G04 #@! TO.C,R44*
X13309600Y9222100D03*
X13309600Y11047100D03*
G04 #@! TD*
D23*
G04 #@! TO.C,R21*
X71144400Y20688800D03*
X69494400Y20688800D03*
G04 #@! TD*
D24*
G04 #@! TO.C,R51*
X52912000Y41630600D03*
X54737000Y41630600D03*
G04 #@! TD*
D25*
G04 #@! TO.C,C17*
X48095200Y24815800D03*
X46545200Y24815800D03*
G04 #@! TD*
D26*
G04 #@! TO.C,Q10*
X5715000Y17348200D03*
X3815000Y17348200D03*
X4765000Y15473200D03*
G04 #@! TD*
D27*
G04 #@! TO.C,U6*
X20325000Y58590000D03*
X22865000Y58590000D03*
X25405000Y58590000D03*
X27945000Y58590000D03*
X30485000Y58590000D03*
X33025000Y58590000D03*
X33025000Y74090000D03*
X30485000Y74090000D03*
X27945000Y74090000D03*
X25405000Y74090000D03*
X22865000Y74090000D03*
X20325000Y74090000D03*
D28*
X33925000Y62530000D03*
X33925000Y64170000D03*
X33925000Y68510000D03*
X33925000Y70150000D03*
D29*
X17975000Y61940000D03*
X17975000Y64140000D03*
X17975000Y66340000D03*
X17975000Y68540000D03*
X17975000Y70740000D03*
X20175000Y61940000D03*
X20175000Y64140000D03*
X20175000Y66340000D03*
X20175000Y68540000D03*
X20175000Y70740000D03*
X22375000Y61940000D03*
X22375000Y64140000D03*
X22375000Y66340000D03*
X22375000Y68540000D03*
X22375000Y70740000D03*
D30*
X24575000Y61940000D03*
D31*
X24575000Y70740000D03*
D32*
X26775000Y61940000D03*
D33*
X26775000Y70740000D03*
D29*
X28975000Y61940000D03*
X28975000Y64140000D03*
X28975000Y66340000D03*
X28975000Y68540000D03*
X28975000Y70740000D03*
X31175000Y61940000D03*
X31175000Y64140000D03*
X31175000Y66340000D03*
X31175000Y68540000D03*
X31175000Y70740000D03*
G04 #@! TD*
D34*
G04 #@! TO.C,R36*
X36927800Y43434000D03*
X35102800Y43434000D03*
G04 #@! TD*
D35*
G04 #@! TO.C,D9*
X43586400Y42817800D03*
X43586400Y38817800D03*
G04 #@! TD*
D36*
G04 #@! TO.C,C46*
X33553400Y82423000D03*
X25153400Y82423000D03*
G04 #@! TD*
D37*
G04 #@! TO.C,Q6*
X55623700Y4587200D03*
X55623700Y6487200D03*
X53748700Y5537200D03*
G04 #@! TD*
D38*
G04 #@! TO.C,C38*
X54751000Y39522400D03*
X52851000Y39522400D03*
G04 #@! TD*
D39*
G04 #@! TO.C,U1*
X71275800Y10328600D03*
X72875800Y10328600D03*
X71275800Y11588600D03*
X72875800Y11588600D03*
D40*
X70170800Y8321099D03*
X71440800Y8321100D03*
X72710800Y8321100D03*
X73980800Y8321099D03*
X73980800Y13596101D03*
X72710800Y13596100D03*
X71440800Y13596100D03*
X70170800Y13596101D03*
G04 #@! TD*
D41*
G04 #@! TO.C,R11*
X64875000Y81575000D03*
X66525000Y81575000D03*
G04 #@! TD*
G04 #@! TO.C,R35*
X25387800Y13157200D03*
X27037800Y13157200D03*
G04 #@! TD*
D42*
G04 #@! TO.C,J8*
X19375000Y84775000D03*
D43*
X22200000Y84575000D03*
X16550000Y84575000D03*
G04 #@! TD*
D19*
G04 #@! TO.C,C28*
X32731400Y39697800D03*
X32731400Y41597800D03*
G04 #@! TD*
D44*
G04 #@! TO.C,U5*
X9870000Y35150000D03*
X11140000Y35150000D03*
X12410000Y35150000D03*
X13680000Y35150000D03*
X14950000Y35150000D03*
X16220000Y35150000D03*
X17490000Y35150000D03*
X18760000Y35150000D03*
X20030000Y35150000D03*
X21300000Y35150000D03*
X22570000Y35150000D03*
X23840000Y35150000D03*
X25110000Y35150000D03*
X26380000Y35150000D03*
D45*
X27630000Y36915000D03*
X27630000Y38185000D03*
X27630000Y39455000D03*
X27630000Y40725000D03*
X27630000Y41995000D03*
X27630000Y43265000D03*
X27630000Y44535000D03*
X27630000Y45805000D03*
X27630000Y47075000D03*
X27630000Y48345000D03*
X27630000Y49615000D03*
X27630000Y50885000D03*
D44*
X26380000Y52650000D03*
X25110000Y52650000D03*
X23840000Y52650000D03*
X22570000Y52650000D03*
X21300000Y52650000D03*
X20030000Y52650000D03*
X18760000Y52650000D03*
X17490000Y52650000D03*
X16220000Y52650000D03*
X14950000Y52650000D03*
X13680000Y52650000D03*
X12410000Y52650000D03*
X11140000Y52650000D03*
X9870000Y52650000D03*
D46*
X17590000Y42400000D03*
X17590000Y41000000D03*
X17590000Y43800000D03*
X18990000Y41000000D03*
X18990000Y42400000D03*
X18990000Y43800000D03*
X16190000Y41000000D03*
X16190000Y42400000D03*
X16190000Y43800000D03*
G04 #@! TD*
D47*
G04 #@! TO.C,C15*
X68351400Y11671600D03*
X68351400Y10121600D03*
G04 #@! TD*
D48*
G04 #@! TO.C,R46*
X20473237Y79882163D03*
X21639963Y78715437D03*
G04 #@! TD*
D23*
G04 #@! TO.C,R59*
X5550000Y19508200D03*
X3900000Y19508200D03*
G04 #@! TD*
D49*
G04 #@! TO.C,U7*
X56621800Y35153600D03*
X55121800Y35153600D03*
X56621800Y34013600D03*
X55121800Y34013600D03*
D50*
X57776800Y37058600D03*
X56506800Y37058600D03*
X55236800Y37058600D03*
X53966800Y37058600D03*
X53966800Y32108600D03*
X55236800Y32108600D03*
X56506800Y32108600D03*
X57776800Y32108600D03*
G04 #@! TD*
D51*
G04 #@! TO.C,C29*
X39266400Y43847800D03*
X39266400Y40897800D03*
G04 #@! TD*
D22*
G04 #@! TO.C,R43*
X11125200Y9272900D03*
X11125200Y11097900D03*
G04 #@! TD*
D52*
G04 #@! TO.C,C18*
X50532900Y24815800D03*
X53657900Y24815800D03*
G04 #@! TD*
D13*
G04 #@! TO.C,R37*
X33448900Y43392800D03*
X31448900Y43392800D03*
G04 #@! TD*
D53*
G04 #@! TO.C,C33*
X18349592Y79868392D03*
X19445608Y80964408D03*
G04 #@! TD*
D54*
G04 #@! TO.C,R57*
X64570893Y30357093D03*
X65985107Y31771307D03*
G04 #@! TD*
D55*
G04 #@! TO.C,C34*
X42933400Y82372200D03*
X51333400Y82372200D03*
G04 #@! TD*
D25*
G04 #@! TO.C,C26*
X31636000Y31953200D03*
X30086000Y31953200D03*
G04 #@! TD*
D41*
G04 #@! TO.C,R56*
X47291800Y39873600D03*
X48941800Y39873600D03*
G04 #@! TD*
D19*
G04 #@! TO.C,C25*
X18415000Y29514800D03*
X18415000Y31414800D03*
G04 #@! TD*
D23*
G04 #@! TO.C,R34*
X27057800Y15072200D03*
X25407800Y15072200D03*
G04 #@! TD*
D56*
G04 #@! TO.C,FB3*
X71653400Y44962300D03*
X71653400Y47087300D03*
G04 #@! TD*
D57*
G04 #@! TO.C,L1*
X43391400Y31367800D03*
X43391400Y35567800D03*
G04 #@! TD*
D58*
G04 #@! TO.C,C32*
X57198999Y29895800D03*
X60149001Y29895800D03*
G04 #@! TD*
D59*
G04 #@! TO.C,C45*
X73736200Y47000200D03*
X73736200Y45100200D03*
G04 #@! TD*
D58*
G04 #@! TO.C,C27*
X35901400Y36452800D03*
X38851400Y36452800D03*
G04 #@! TD*
D60*
G04 #@! TO.C,D10*
X38928900Y38807800D03*
X40803900Y38807800D03*
G04 #@! TD*
D24*
G04 #@! TO.C,R48*
X56569600Y41605200D03*
X58394600Y41605200D03*
G04 #@! TD*
D37*
G04 #@! TO.C,Q7*
X23684600Y13192600D03*
X23684600Y15092600D03*
X21809600Y14142600D03*
G04 #@! TD*
D19*
G04 #@! TO.C,C44*
X73507600Y36286400D03*
X73507600Y38186400D03*
G04 #@! TD*
D23*
G04 #@! TO.C,R60*
X5470000Y13468200D03*
X3820000Y13468200D03*
G04 #@! TD*
D22*
G04 #@! TO.C,R42*
X15468600Y9272900D03*
X15468600Y11097900D03*
G04 #@! TD*
D41*
G04 #@! TO.C,R45*
X51981600Y27660600D03*
X53631600Y27660600D03*
G04 #@! TD*
D61*
G04 #@! TO.C,C48*
X58129808Y80782792D03*
X57033792Y81878808D03*
G04 #@! TD*
D62*
G04 #@! TO.C,R52*
X56031563Y80847363D03*
X54864837Y79680637D03*
G04 #@! TD*
D58*
G04 #@! TO.C,C40*
X54328800Y43967400D03*
X57278800Y43967400D03*
G04 #@! TD*
D52*
G04 #@! TO.C,C13*
X50609100Y14706600D03*
X53734100Y14706600D03*
G04 #@! TD*
D10*
G04 #@! TO.C,SW1*
X16750000Y27450000D03*
X11750000Y27450000D03*
X16750000Y13150000D03*
X11750000Y13150000D03*
G04 #@! TD*
D63*
G04 #@! TO.C,R30*
X57962800Y7670800D03*
X57962800Y5670800D03*
G04 #@! TD*
D64*
G04 #@! TO.C,U8*
X67459831Y34977903D03*
X67898237Y34539497D03*
X67898237Y35416309D03*
X68336643Y34977903D03*
D65*
X66200474Y34340800D03*
X66551199Y33990075D03*
X66907580Y33633693D03*
X67261134Y33280140D03*
D66*
X68535340Y33280140D03*
X68888894Y33633693D03*
X69242447Y33987246D03*
X69596000Y34340800D03*
D65*
X69596000Y35615006D03*
X69242447Y35968560D03*
X68886065Y36324941D03*
X68535340Y36675666D03*
D66*
X67261134Y36675666D03*
X66907580Y36322113D03*
X66551199Y35965731D03*
X66200474Y35615006D03*
G04 #@! TD*
D26*
G04 #@! TO.C,Q9*
X5715000Y23383200D03*
X3815000Y23383200D03*
X4765000Y21508200D03*
G04 #@! TD*
D67*
G04 #@! TO.C,C16*
X69926200Y25497700D03*
X69926200Y23422700D03*
G04 #@! TD*
D50*
G04 #@! TO.C,U3*
X30649000Y24446000D03*
X29379000Y24446000D03*
X28109000Y24446000D03*
X26839000Y24446000D03*
X25569000Y24446000D03*
X24299000Y24446000D03*
X23029000Y24446000D03*
X21759000Y24446000D03*
X21759000Y19496000D03*
X23029000Y19496000D03*
X24299000Y19496000D03*
X25569000Y19496000D03*
X26839000Y19496000D03*
X28109000Y19496000D03*
X29379000Y19496000D03*
X30649000Y19496000D03*
G04 #@! TD*
D68*
G04 #@! TO.C,C42*
X68086049Y27827049D03*
X69429551Y29170551D03*
G04 #@! TD*
D23*
G04 #@! TO.C,R3*
X58102000Y10312400D03*
X56452000Y10312400D03*
G04 #@! TD*
D69*
G04 #@! TO.C,R49*
X55375800Y29794200D03*
X53550800Y29794200D03*
G04 #@! TD*
D23*
G04 #@! TO.C,R20*
X74192400Y20675600D03*
X72542400Y20675600D03*
G04 #@! TD*
D70*
G04 #@! TO.C,Q8*
X28739200Y15118000D03*
X28739200Y13218000D03*
X30614200Y14168000D03*
G04 #@! TD*
D35*
G04 #@! TO.C,D12*
X62814200Y36925000D03*
X62814200Y32925000D03*
G04 #@! TD*
D41*
G04 #@! TO.C,R32*
X11646400Y32842200D03*
X13296400Y32842200D03*
G04 #@! TD*
D10*
G04 #@! TO.C,SW2*
X40725000Y27450000D03*
X35725000Y27450000D03*
X40725000Y13150000D03*
X35725000Y13150000D03*
G04 #@! TD*
D23*
G04 #@! TO.C,R12*
X66525000Y79625000D03*
X64875000Y79625000D03*
G04 #@! TD*
D53*
G04 #@! TO.C,C31*
X21549992Y76642592D03*
X22646008Y77738608D03*
G04 #@! TD*
D71*
G04 #@! TO.C,U4*
X36811400Y41547800D03*
X35861400Y41547800D03*
X34911400Y41547800D03*
X34911400Y39272800D03*
X35861400Y39272800D03*
X36811400Y39272800D03*
G04 #@! TD*
D25*
G04 #@! TO.C,C14*
X48171400Y14706600D03*
X46621400Y14706600D03*
G04 #@! TD*
D42*
G04 #@! TO.C,J3*
X57100000Y84775000D03*
D43*
X59925000Y84575000D03*
X54275000Y84575000D03*
G04 #@! TD*
D72*
G04 #@! TO.C,J5*
X35000000Y8415000D03*
X35800000Y8415000D03*
D73*
X37000000Y8415000D03*
X38000000Y8415000D03*
X38500000Y8415000D03*
X39500000Y8415000D03*
D72*
X40700000Y8415000D03*
X41500000Y8415000D03*
X41500000Y8415000D03*
X40700000Y8415000D03*
D73*
X40000000Y8415000D03*
X39000000Y8415000D03*
X37500000Y8415000D03*
X36500000Y8415000D03*
D72*
X35800000Y8415000D03*
X35000000Y8415000D03*
G04 #@! TD*
D74*
G04 #@! TO.C,R54*
X51536600Y34114100D03*
X51536600Y35939100D03*
G04 #@! TD*
D60*
G04 #@! TO.C,D7*
X37416500Y86563200D03*
X39291500Y86563200D03*
G04 #@! TD*
D41*
G04 #@! TO.C,R58*
X3900000Y25418200D03*
X5550000Y25418200D03*
G04 #@! TD*
D75*
G04 #@! TO.C,C41*
X50903400Y43942000D03*
X47953400Y43942000D03*
G04 #@! TD*
D25*
G04 #@! TO.C,C23*
X14821200Y30962600D03*
X13271200Y30962600D03*
G04 #@! TD*
D76*
G04 #@! TO.C,D8*
X50895000Y4216400D03*
X46895000Y4216400D03*
G04 #@! TD*
D77*
G04 #@! TO.C,Y1*
X21962800Y28473400D03*
X30462800Y28473400D03*
G04 #@! TD*
D78*
G04 #@! TO.C,L2*
X63427600Y39650200D03*
X63427600Y46050200D03*
G04 #@! TD*
D59*
G04 #@! TO.C,C21*
X34010600Y31684000D03*
X34010600Y29784000D03*
G04 #@! TD*
D79*
G04 #@! TO.C,C24*
X9474200Y33007700D03*
X9474200Y29882700D03*
G04 #@! TD*
D80*
G04 #@! TO.C,U2*
X47116600Y22010400D03*
X47116600Y19710400D03*
D81*
X53416600Y19710400D03*
D80*
X47116600Y17410400D03*
G04 #@! TD*
D69*
G04 #@! TO.C,R47*
X58394600Y39497000D03*
X56569600Y39497000D03*
G04 #@! TD*
D82*
G04 #@! TO.C,R40*
X39754800Y45745400D03*
X41579800Y45745400D03*
G04 #@! TD*
D47*
G04 #@! TO.C,C20*
X11633200Y31407400D03*
X11633200Y29857400D03*
G04 #@! TD*
D25*
G04 #@! TO.C,C22*
X30721600Y17018000D03*
X29171600Y17018000D03*
G04 #@! TD*
D61*
G04 #@! TO.C,C47*
X54940200Y77546200D03*
X53844184Y78642216D03*
G04 #@! TD*
M02*
