G04 #@! TF.GenerationSoftware,KiCad,Pcbnew,9.0.2*
G04 #@! TF.CreationDate,2025-10-13T16:39:09+05:30*
G04 #@! TF.ProjectId,V12A_LH,56313241-5f4c-4482-9e6b-696361645f70,rev?*
G04 #@! TF.SameCoordinates,Original*
G04 #@! TF.FileFunction,Soldermask,Bot*
G04 #@! TF.FilePolarity,Negative*
%FSLAX46Y46*%
G04 Gerber Fmt 4.6, Leading zero omitted, Abs format (unit mm)*
G04 Created by KiCad (PCBNEW 9.0.2) date 2025-10-13 16:39:09*
%MOMM*%
%LPD*%
G01*
G04 APERTURE LIST*
G04 Aperture macros list*
%AMRoundRect*
0 Rectangle with rounded corners*
0 $1 Rounding radius*
0 $2 $3 $4 $5 $6 $7 $8 $9 X,Y pos of 4 corners*
0 Add a 4 corners polygon primitive as box body*
4,1,4,$2,$3,$4,$5,$6,$7,$8,$9,$2,$3,0*
0 Add four circle primitives for the rounded corners*
1,1,$1+$1,$2,$3*
1,1,$1+$1,$4,$5*
1,1,$1+$1,$6,$7*
1,1,$1+$1,$8,$9*
0 Add four rect primitives between the rounded corners*
20,1,$1+$1,$2,$3,$4,$5,0*
20,1,$1+$1,$4,$5,$6,$7,0*
20,1,$1+$1,$6,$7,$8,$9,0*
20,1,$1+$1,$8,$9,$2,$3,0*%
G04 Aperture macros list end*
%ADD10C,0.010000*%
%ADD11C,2.100000*%
%ADD12R,1.700000X1.700000*%
%ADD13O,1.700000X1.700000*%
%ADD14R,1.350000X4.200000*%
%ADD15C,1.524000*%
%ADD16C,2.000000*%
%ADD17C,0.650000*%
%ADD18O,1.000000X2.100000*%
%ADD19O,1.000000X1.600000*%
%ADD20R,1.350000X1.350000*%
%ADD21O,1.350000X1.350000*%
%ADD22RoundRect,0.200000X-0.200000X-0.275000X0.200000X-0.275000X0.200000X0.275000X-0.200000X0.275000X0*%
%ADD23RoundRect,0.200000X0.275000X-0.200000X0.275000X0.200000X-0.275000X0.200000X-0.275000X-0.200000X0*%
%ADD24RoundRect,0.225000X-0.225000X-0.250000X0.225000X-0.250000X0.225000X0.250000X-0.225000X0.250000X0*%
%ADD25RoundRect,0.250000X-0.512652X-0.159099X-0.159099X-0.512652X0.512652X0.159099X0.159099X0.512652X0*%
%ADD26RoundRect,0.250000X-0.325000X-0.650000X0.325000X-0.650000X0.325000X0.650000X-0.325000X0.650000X0*%
%ADD27RoundRect,0.250000X0.700000X-0.362500X0.700000X0.362500X-0.700000X0.362500X-0.700000X-0.362500X0*%
%ADD28RoundRect,0.200000X0.200000X0.275000X-0.200000X0.275000X-0.200000X-0.275000X0.200000X-0.275000X0*%
%ADD29RoundRect,0.200000X-0.275000X0.200000X-0.275000X-0.200000X0.275000X-0.200000X0.275000X0.200000X0*%
%ADD30RoundRect,0.200000X0.053033X-0.335876X0.335876X-0.053033X-0.053033X0.335876X-0.335876X0.053033X0*%
%ADD31RoundRect,0.237500X0.237500X-0.250000X0.237500X0.250000X-0.237500X0.250000X-0.237500X-0.250000X0*%
%ADD32RoundRect,0.150000X0.150000X-0.587500X0.150000X0.587500X-0.150000X0.587500X-0.150000X-0.587500X0*%
%ADD33RoundRect,0.225000X0.225000X0.250000X-0.225000X0.250000X-0.225000X-0.250000X0.225000X-0.250000X0*%
%ADD34RoundRect,0.237500X-0.237500X0.250000X-0.237500X-0.250000X0.237500X-0.250000X0.237500X0.250000X0*%
%ADD35RoundRect,0.150000X-0.587500X-0.150000X0.587500X-0.150000X0.587500X0.150000X-0.587500X0.150000X0*%
%ADD36RoundRect,0.250000X-0.650000X0.412500X-0.650000X-0.412500X0.650000X-0.412500X0.650000X0.412500X0*%
%ADD37C,1.200000*%
%ADD38R,2.800000X4.400000*%
%ADD39C,0.750000*%
%ADD40R,0.650000X1.230000*%
%ADD41R,0.700000X2.100000*%
%ADD42R,0.700000X2.000000*%
%ADD43RoundRect,0.250000X0.412500X0.650000X-0.412500X0.650000X-0.412500X-0.650000X0.412500X-0.650000X0*%
%ADD44RoundRect,0.250000X0.750000X-0.600000X0.750000X0.600000X-0.750000X0.600000X-0.750000X-0.600000X0*%
%ADD45O,2.000000X1.700000*%
%ADD46RoundRect,0.250000X0.350000X0.450000X-0.350000X0.450000X-0.350000X-0.450000X0.350000X-0.450000X0*%
%ADD47RoundRect,0.250000X-1.000000X-0.900000X1.000000X-0.900000X1.000000X0.900000X-1.000000X0.900000X0*%
%ADD48C,0.900000*%
%ADD49R,0.700000X1.600000*%
%ADD50R,1.400000X1.600000*%
%ADD51R,1.400000X2.200000*%
%ADD52R,1.800000X1.400000*%
%ADD53RoundRect,0.250000X-0.250000X-0.475000X0.250000X-0.475000X0.250000X0.475000X-0.250000X0.475000X0*%
%ADD54RoundRect,0.250000X-0.475000X0.250000X-0.475000X-0.250000X0.475000X-0.250000X0.475000X0.250000X0*%
G04 APERTURE END LIST*
D10*
G04 #@! TO.C,D1*
X58969000Y18189551D02*
X58067190Y18189551D01*
X58067190Y18639000D01*
X58969000Y18639000D01*
X58969000Y18189551D01*
G36*
X58969000Y18189551D02*
G01*
X58067190Y18189551D01*
X58067190Y18639000D01*
X58969000Y18639000D01*
X58969000Y18189551D01*
G37*
X58969000Y17538869D02*
X58068180Y17538869D01*
X58068180Y17989000D01*
X58969000Y17989000D01*
X58969000Y17538869D01*
G36*
X58969000Y17538869D02*
G01*
X58068180Y17538869D01*
X58068180Y17989000D01*
X58969000Y17989000D01*
X58969000Y17538869D01*
G37*
X58969000Y16888564D02*
X58068300Y16888564D01*
X58068300Y17339000D01*
X58969000Y17339000D01*
X58969000Y16888564D01*
G36*
X58969000Y16888564D02*
G01*
X58068300Y16888564D01*
X58068300Y17339000D01*
X58969000Y17339000D01*
X58969000Y16888564D01*
G37*
X60869000Y18189262D02*
X59969308Y18189262D01*
X59969308Y18639000D01*
X60869000Y18639000D01*
X60869000Y18189262D01*
G36*
X60869000Y18189262D02*
G01*
X59969308Y18189262D01*
X59969308Y18639000D01*
X60869000Y18639000D01*
X60869000Y18189262D01*
G37*
X60869000Y17538746D02*
X59969565Y17538746D01*
X59969565Y17989000D01*
X60869000Y17989000D01*
X60869000Y17538746D01*
G36*
X60869000Y17538746D02*
G01*
X59969565Y17538746D01*
X59969565Y17989000D01*
X60869000Y17989000D01*
X60869000Y17538746D01*
G37*
X60869000Y16888855D02*
X59969083Y16888855D01*
X59969083Y17339000D01*
X60869000Y17339000D01*
X60869000Y16888855D01*
G36*
X60869000Y16888855D02*
G01*
X59969083Y16888855D01*
X59969083Y17339000D01*
X60869000Y17339000D01*
X60869000Y16888855D01*
G37*
G04 #@! TD*
D11*
G04 #@! TO.C,H6*
X72350000Y86425000D03*
G04 #@! TD*
D12*
G04 #@! TO.C,J11*
X73050000Y75540000D03*
D13*
X73050000Y73000000D03*
X73050000Y70460000D03*
X73050000Y67920000D03*
X73050000Y65380000D03*
X73050000Y62840000D03*
G04 #@! TD*
D11*
G04 #@! TO.C,H5*
X3825000Y56000000D03*
G04 #@! TD*
G04 #@! TO.C,H3*
X3825000Y86400000D03*
G04 #@! TD*
D14*
G04 #@! TO.C,J8*
X22200000Y84575000D03*
X16550000Y84575000D03*
G04 #@! TD*
D15*
G04 #@! TO.C,U9*
X29460000Y8130000D03*
X29460000Y10670000D03*
X21840000Y5590000D03*
X29460000Y5590000D03*
X21840000Y8130000D03*
X21840000Y10670000D03*
G04 #@! TD*
D12*
G04 #@! TO.C,J9*
X3500000Y75540000D03*
D13*
X3500000Y73000000D03*
X3500000Y70460000D03*
X3500000Y67920000D03*
X3500000Y65380000D03*
X3500000Y62840000D03*
X3500000Y60300000D03*
G04 #@! TD*
D12*
G04 #@! TO.C,J7*
X70713600Y2286000D03*
D13*
X70713600Y4826000D03*
X73253600Y2286000D03*
X73253600Y4826000D03*
G04 #@! TD*
D16*
G04 #@! TO.C,SW2*
X42725000Y20300000D03*
X33725000Y20300000D03*
G04 #@! TD*
D11*
G04 #@! TO.C,H8*
X72100000Y31200000D03*
G04 #@! TD*
G04 #@! TO.C,H7*
X36325000Y47875000D03*
G04 #@! TD*
G04 #@! TO.C,H1*
X4650000Y31400000D03*
G04 #@! TD*
G04 #@! TO.C,H4*
X72350000Y54800000D03*
G04 #@! TD*
D14*
G04 #@! TO.C,J3*
X59925000Y84575000D03*
X54275000Y84575000D03*
G04 #@! TD*
D17*
G04 #@! TO.C,J5*
X35360000Y6970000D03*
X41140000Y6970000D03*
D18*
X33930000Y7500000D03*
D19*
X33930000Y3320000D03*
D18*
X42570000Y7500000D03*
D19*
X42570000Y3320000D03*
G04 #@! TD*
D11*
G04 #@! TO.C,H2*
X49300000Y10275000D03*
G04 #@! TD*
D20*
G04 #@! TO.C,J4*
X70958200Y18135600D03*
D21*
X72958200Y18135600D03*
G04 #@! TD*
D22*
G04 #@! TO.C,R4*
X40060000Y73458100D03*
X41710000Y73458100D03*
G04 #@! TD*
D23*
G04 #@! TO.C,R15*
X68425400Y72697200D03*
X68425400Y74347200D03*
G04 #@! TD*
D24*
G04 #@! TO.C,C7*
X59781500Y75199900D03*
X61331500Y75199900D03*
G04 #@! TD*
G04 #@! TO.C,C4*
X55587600Y18338800D03*
X57137600Y18338800D03*
G04 #@! TD*
D22*
G04 #@! TO.C,R39*
X56680600Y23977600D03*
X58330600Y23977600D03*
G04 #@! TD*
D25*
G04 #@! TO.C,C35*
X32032098Y58112502D03*
X33375600Y56769000D03*
G04 #@! TD*
D26*
G04 #@! TO.C,C10*
X63191900Y82579600D03*
X66141900Y82579600D03*
G04 #@! TD*
D27*
G04 #@! TO.C,FB1*
X63322200Y69240400D03*
X63322200Y72565400D03*
G04 #@! TD*
D28*
G04 #@! TO.C,R24*
X33311600Y9474200D03*
X31661600Y9474200D03*
G04 #@! TD*
D29*
G04 #@! TO.C,R17*
X72570000Y79680000D03*
X72570000Y78030000D03*
G04 #@! TD*
D22*
G04 #@! TO.C,R10*
X49305300Y84838300D03*
X50955300Y84838300D03*
G04 #@! TD*
D28*
G04 #@! TO.C,R9*
X41633800Y71694700D03*
X39983800Y71694700D03*
G04 #@! TD*
D26*
G04 #@! TO.C,C11*
X63191900Y80154600D03*
X66141900Y80154600D03*
G04 #@! TD*
D30*
G04 #@! TO.C,R28*
X4495800Y24460200D03*
X5662526Y25626926D03*
G04 #@! TD*
D23*
G04 #@! TO.C,R6*
X52146200Y81750400D03*
X52146200Y83400400D03*
G04 #@! TD*
D31*
G04 #@! TO.C,R26*
X73025000Y13692500D03*
X73025000Y15517500D03*
G04 #@! TD*
D29*
G04 #@! TO.C,R23*
X37236400Y6273800D03*
X37236400Y4623800D03*
G04 #@! TD*
D24*
G04 #@! TO.C,C6*
X59781500Y76774700D03*
X61331500Y76774700D03*
G04 #@! TD*
G04 #@! TO.C,C2*
X55562200Y19964400D03*
X57112200Y19964400D03*
G04 #@! TD*
D32*
G04 #@! TO.C,Q4*
X50632400Y81104500D03*
X48732400Y81104500D03*
X49682400Y82979500D03*
G04 #@! TD*
G04 #@! TO.C,Q2*
X41745300Y54706700D03*
X39845300Y54706700D03*
X40795300Y56581700D03*
G04 #@! TD*
D33*
G04 #@! TO.C,C1*
X41583800Y62728500D03*
X40033800Y62728500D03*
G04 #@! TD*
D22*
G04 #@! TO.C,R1*
X40057800Y58506200D03*
X41707800Y58506200D03*
G04 #@! TD*
D34*
G04 #@! TO.C,R55*
X5867400Y60346600D03*
X5867400Y58521600D03*
G04 #@! TD*
D24*
G04 #@! TO.C,C9*
X59781500Y78349500D03*
X61331500Y78349500D03*
G04 #@! TD*
D22*
G04 #@! TO.C,R50*
X24625800Y54711600D03*
X26275800Y54711600D03*
G04 #@! TD*
D26*
G04 #@! TO.C,C49*
X65020400Y85013800D03*
X67970400Y85013800D03*
G04 #@! TD*
D35*
G04 #@! TO.C,Q5*
X68627500Y77985000D03*
X68627500Y79885000D03*
X70502500Y78935000D03*
G04 #@! TD*
D32*
G04 #@! TO.C,Q3*
X41824800Y77231900D03*
X39924800Y77231900D03*
X40874800Y79106900D03*
G04 #@! TD*
D33*
G04 #@! TO.C,C3*
X41657800Y51110200D03*
X40107800Y51110200D03*
G04 #@! TD*
D22*
G04 #@! TO.C,R25*
X31687000Y11023600D03*
X33337000Y11023600D03*
G04 #@! TD*
D36*
G04 #@! TO.C,C37*
X28397200Y56147100D03*
X28397200Y53022100D03*
G04 #@! TD*
D37*
G04 #@! TO.C,BT1*
X25679400Y70060200D03*
X25679400Y62560200D03*
D38*
X25679400Y58535200D03*
X25679400Y74385200D03*
G04 #@! TD*
D23*
G04 #@! TO.C,R29*
X37439600Y84798400D03*
X37439600Y86448400D03*
G04 #@! TD*
D31*
G04 #@! TO.C,R27*
X71196200Y13692500D03*
X71196200Y15517500D03*
G04 #@! TD*
D29*
G04 #@! TO.C,R22*
X39268400Y6272800D03*
X39268400Y4622800D03*
G04 #@! TD*
D28*
G04 #@! TO.C,R8*
X41661000Y75218700D03*
X40011000Y75218700D03*
G04 #@! TD*
D39*
G04 #@! TO.C,J1*
X64109600Y3378000D03*
X55609600Y3378000D03*
D40*
X58859600Y15693000D03*
X61399600Y15693000D03*
X63939600Y15693000D03*
D41*
X65609600Y2128000D03*
D42*
X65609600Y14128000D03*
D40*
X57589600Y15693000D03*
D41*
X52619600Y2128000D03*
X52619600Y14128000D03*
D40*
X60129600Y15693000D03*
X62669600Y15693000D03*
X56639600Y15697200D03*
G04 #@! TD*
D24*
G04 #@! TO.C,C8*
X59781500Y73650500D03*
X61331500Y73650500D03*
G04 #@! TD*
D43*
G04 #@! TO.C,C19*
X40246700Y2336800D03*
X37121700Y2336800D03*
G04 #@! TD*
D22*
G04 #@! TO.C,R13*
X68400000Y76050000D03*
X70050000Y76050000D03*
G04 #@! TD*
G04 #@! TO.C,R38*
X69583800Y65227200D03*
X71233800Y65227200D03*
G04 #@! TD*
D23*
G04 #@! TO.C,R16*
X44575000Y72775000D03*
X44575000Y74425000D03*
G04 #@! TD*
D22*
G04 #@! TO.C,R5*
X40057800Y52782200D03*
X41707800Y52782200D03*
G04 #@! TD*
D23*
G04 #@! TO.C,R14*
X70076400Y72697200D03*
X70076400Y74347200D03*
G04 #@! TD*
G04 #@! TO.C,R18*
X63205000Y84750000D03*
X63205000Y86400000D03*
G04 #@! TD*
D44*
G04 #@! TO.C,J6*
X72237600Y23291800D03*
D45*
X72237600Y25791800D03*
G04 #@! TD*
D46*
G04 #@! TO.C,R19*
X73085200Y7467600D03*
X71085200Y7467600D03*
G04 #@! TD*
D22*
G04 #@! TO.C,R41*
X69685400Y67868800D03*
X71335400Y67868800D03*
G04 #@! TD*
D44*
G04 #@! TO.C,J12*
X71856600Y40426000D03*
D45*
X71856600Y42926000D03*
G04 #@! TD*
D28*
G04 #@! TO.C,R7*
X50558200Y79070200D03*
X48908200Y79070200D03*
G04 #@! TD*
D47*
G04 #@! TO.C,D4*
X53586600Y67081400D03*
X57886600Y67081400D03*
G04 #@! TD*
D48*
G04 #@! TO.C,P1*
X16002000Y6172200D03*
X8002000Y6172200D03*
D49*
X8802000Y16672200D03*
X9902000Y16672200D03*
X11002000Y16672200D03*
X12102000Y16672200D03*
X13202000Y16672200D03*
X14302000Y16672200D03*
X15402000Y16672200D03*
X16502000Y16672200D03*
X17602000Y16672200D03*
D50*
X18902000Y16072200D03*
D51*
X18902000Y6572200D03*
X3202000Y6572200D03*
D52*
X4102000Y16172200D03*
G04 #@! TD*
D53*
G04 #@! TO.C,C12*
X39997700Y60368600D03*
X41897700Y60368600D03*
G04 #@! TD*
D22*
G04 #@! TO.C,C30*
X12459200Y18618200D03*
X14109200Y18618200D03*
G04 #@! TD*
D54*
G04 #@! TO.C,C36*
X30683200Y56220400D03*
X30683200Y54320400D03*
G04 #@! TD*
D28*
G04 #@! TO.C,R2*
X41633800Y64375100D03*
X39983800Y64375100D03*
G04 #@! TD*
D32*
G04 #@! TO.C,Q1*
X41671300Y66274100D03*
X39771300Y66274100D03*
X40721300Y68149100D03*
G04 #@! TD*
D33*
G04 #@! TO.C,C5*
X41583800Y70048200D03*
X40033800Y70048200D03*
G04 #@! TD*
M02*
