G04 #@! TF.GenerationSoftware,KiCad,Pcbnew,9.0.2*
G04 #@! TF.CreationDate,2025-10-13T16:39:09+05:30*
G04 #@! TF.ProjectId,V12A_LH,56313241-5f4c-4482-9e6b-696361645f70,rev?*
G04 #@! TF.SameCoordinates,Original*
G04 #@! TF.FileFunction,Soldermask,Top*
G04 #@! TF.FilePolarity,Negative*
%FSLAX46Y46*%
G04 Gerber Fmt 4.6, Leading zero omitted, Abs format (unit mm)*
G04 Created by KiCad (PCBNEW 9.0.2) date 2025-10-13 16:39:09*
%MOMM*%
%LPD*%
G01*
G04 APERTURE LIST*
G04 Aperture macros list*
%AMRoundRect*
0 Rectangle with rounded corners*
0 $1 Rounding radius*
0 $2 $3 $4 $5 $6 $7 $8 $9 X,Y pos of 4 corners*
0 Add a 4 corners polygon primitive as box body*
4,1,4,$2,$3,$4,$5,$6,$7,$8,$9,$2,$3,0*
0 Add four circle primitives for the rounded corners*
1,1,$1+$1,$2,$3*
1,1,$1+$1,$4,$5*
1,1,$1+$1,$6,$7*
1,1,$1+$1,$8,$9*
0 Add four rect primitives between the rounded corners*
20,1,$1+$1,$2,$3,$4,$5,0*
20,1,$1+$1,$4,$5,$6,$7,0*
20,1,$1+$1,$6,$7,$8,$9,0*
20,1,$1+$1,$8,$9,$2,$3,0*%
%AMRotRect*
0 Rectangle, with rotation*
0 The origin of the aperture is its center*
0 $1 length*
0 $2 width*
0 $3 Rotation angle, in degrees counterclockwise*
0 Add horizontal line*
21,1,$1,$2,0,0,$3*%
%AMFreePoly0*
4,1,19,0.559954,0.582520,0.597008,0.531520,0.602000,0.500000,0.602000,0.000000,0.582520,-0.059954,0.572125,-0.072125,0.072125,-0.572125,0.015956,-0.600744,0.000000,-0.602000,-0.500000,-0.602000,-0.559954,-0.582520,-0.597008,-0.531520,-0.602000,-0.500000,-0.602000,0.500000,-0.582520,0.559954,-0.531520,0.597008,-0.500000,0.602000,0.500000,0.602000,0.559954,0.582520,0.559954,0.582520,
$1*%
%AMFreePoly1*
4,1,19,0.559954,0.582520,0.597008,0.531520,0.602000,0.500000,0.602000,-0.500000,0.582520,-0.559954,0.531520,-0.597008,0.500000,-0.602000,0.000000,-0.602000,-0.059954,-0.582520,-0.072125,-0.572125,-0.572125,-0.072125,-0.600744,-0.015956,-0.602000,0.000000,-0.602000,0.500000,-0.582520,0.559954,-0.531520,0.597008,-0.500000,0.602000,0.500000,0.602000,0.559954,0.582520,0.559954,0.582520,
$1*%
%AMFreePoly2*
4,1,19,0.059954,0.582520,0.072125,0.572125,0.572125,0.072125,0.600744,0.015956,0.602000,0.000000,0.602000,-0.500000,0.582520,-0.559954,0.531520,-0.597008,0.500000,-0.602000,-0.500000,-0.602000,-0.559954,-0.582520,-0.597008,-0.531520,-0.602000,-0.500000,-0.602000,0.500000,-0.582520,0.559954,-0.531520,0.597008,-0.500000,0.602000,0.000000,0.602000,0.059954,0.582520,0.059954,0.582520,
$1*%
%AMFreePoly3*
4,1,19,0.559954,0.582520,0.597008,0.531520,0.602000,0.500000,0.602000,-0.500000,0.582520,-0.559954,0.531520,-0.597008,0.500000,-0.602000,-0.500000,-0.602000,-0.559954,-0.582520,-0.597008,-0.531520,-0.602000,-0.500000,-0.602000,0.000000,-0.582520,0.059954,-0.572125,0.072125,-0.072125,0.572125,-0.015956,0.600744,0.000000,0.602000,0.500000,0.602000,0.559954,0.582520,0.559954,0.582520,
$1*%
%AMFreePoly4*
4,1,23,0.500000,-0.750000,0.000000,-0.750000,0.000000,-0.745722,-0.065263,-0.745722,-0.191342,-0.711940,-0.304381,-0.646677,-0.396677,-0.554381,-0.461940,-0.441342,-0.495722,-0.315263,-0.495722,-0.250000,-0.500000,-0.250000,-0.500000,0.250000,-0.495722,0.250000,-0.495722,0.315263,-0.461940,0.441342,-0.396677,0.554381,-0.304381,0.646677,-0.191342,0.711940,-0.065263,0.745722,0.000000,0.745722,
0.000000,0.750000,0.500000,0.750000,0.500000,-0.750000,0.500000,-0.750000,$1*%
%AMFreePoly5*
4,1,23,0.000000,0.745722,0.065263,0.745722,0.191342,0.711940,0.304381,0.646677,0.396677,0.554381,0.461940,0.441342,0.495722,0.315263,0.495722,0.250000,0.500000,0.250000,0.500000,-0.250000,0.495722,-0.250000,0.495722,-0.315263,0.461940,-0.441342,0.396677,-0.554381,0.304381,-0.646677,0.191342,-0.711940,0.065263,-0.745722,0.000000,-0.745722,0.000000,-0.750000,-0.500000,-0.750000,
-0.500000,0.750000,0.000000,0.750000,0.000000,0.745722,0.000000,0.745722,$1*%
G04 Aperture macros list end*
%ADD10R,1.500000X2.000000*%
%ADD11RoundRect,0.250000X-0.159099X0.512652X-0.512652X0.159099X0.159099X-0.512652X0.512652X-0.159099X0*%
%ADD12RoundRect,0.250000X-0.450000X0.262500X-0.450000X-0.262500X0.450000X-0.262500X0.450000X0.262500X0*%
%ADD13RoundRect,0.250000X-0.350000X-0.450000X0.350000X-0.450000X0.350000X0.450000X-0.350000X0.450000X0*%
%ADD14O,2.000000X0.600000*%
%ADD15O,0.600000X2.000000*%
%ADD16R,2.100000X2.100000*%
%ADD17R,1.100000X0.900000*%
%ADD18R,0.900000X1.100000*%
%ADD19RoundRect,0.250000X0.475000X-0.250000X0.475000X0.250000X-0.475000X0.250000X-0.475000X-0.250000X0*%
%ADD20RoundRect,0.218750X-0.381250X0.218750X-0.381250X-0.218750X0.381250X-0.218750X0.381250X0.218750X0*%
%ADD21RoundRect,0.200000X-0.275000X0.200000X-0.275000X-0.200000X0.275000X-0.200000X0.275000X0.200000X0*%
%ADD22RoundRect,0.237500X0.237500X-0.250000X0.237500X0.250000X-0.237500X0.250000X-0.237500X-0.250000X0*%
%ADD23C,2.100000*%
%ADD24RoundRect,0.200000X0.200000X0.275000X-0.200000X0.275000X-0.200000X-0.275000X0.200000X-0.275000X0*%
%ADD25RoundRect,0.250000X-0.262500X-0.450000X0.262500X-0.450000X0.262500X0.450000X-0.262500X0.450000X0*%
%ADD26R,1.000000X1.000000*%
%ADD27RoundRect,0.225000X0.225000X0.250000X-0.225000X0.250000X-0.225000X-0.250000X0.225000X-0.250000X0*%
%ADD28RoundRect,0.150000X-0.150000X0.587500X-0.150000X-0.587500X0.150000X-0.587500X0.150000X0.587500X0*%
%ADD29O,1.004000X2.704000*%
%ADD30O,2.704000X1.004000*%
%ADD31RoundRect,0.102000X0.500000X-0.500000X0.500000X0.500000X-0.500000X0.500000X-0.500000X-0.500000X0*%
%ADD32FreePoly0,90.000000*%
%ADD33FreePoly1,90.000000*%
%ADD34FreePoly2,90.000000*%
%ADD35FreePoly3,90.000000*%
%ADD36RoundRect,0.237500X0.250000X0.237500X-0.250000X0.237500X-0.250000X-0.237500X0.250000X-0.237500X0*%
%ADD37R,1.700000X1.700000*%
%ADD38O,1.700000X1.700000*%
%ADD39RoundRect,0.250000X-0.650000X1.000000X-0.650000X-1.000000X0.650000X-1.000000X0.650000X1.000000X0*%
%ADD40RoundRect,0.250000X1.950000X1.000000X-1.950000X1.000000X-1.950000X-1.000000X1.950000X-1.000000X0*%
%ADD41RoundRect,0.150000X0.587500X0.150000X-0.587500X0.150000X-0.587500X-0.150000X0.587500X-0.150000X0*%
%ADD42RoundRect,0.250000X0.250000X0.475000X-0.250000X0.475000X-0.250000X-0.475000X0.250000X-0.475000X0*%
%ADD43RoundRect,0.150000X0.150000X-0.662500X0.150000X0.662500X-0.150000X0.662500X-0.150000X-0.662500X0*%
%ADD44R,3.200000X2.514000*%
%ADD45RoundRect,0.200000X-0.200000X-0.275000X0.200000X-0.275000X0.200000X0.275000X-0.200000X0.275000X0*%
%ADD46R,1.270000X3.600000*%
%ADD47R,1.350000X4.200000*%
%ADD48R,0.900000X1.500000*%
%ADD49R,1.500000X0.900000*%
%ADD50R,0.900000X0.900000*%
%ADD51C,1.524000*%
%ADD52RoundRect,0.225000X-0.250000X0.225000X-0.250000X-0.225000X0.250000X-0.225000X0.250000X0.225000X0*%
%ADD53RoundRect,0.200000X-0.335876X-0.053033X-0.053033X-0.335876X0.335876X0.053033X0.053033X0.335876X0*%
%ADD54RoundRect,0.150000X-0.150000X0.825000X-0.150000X-0.825000X0.150000X-0.825000X0.150000X0.825000X0*%
%ADD55R,3.000000X2.290000*%
%ADD56RoundRect,0.250000X-0.650000X0.325000X-0.650000X-0.325000X0.650000X-0.325000X0.650000X0.325000X0*%
%ADD57RoundRect,0.250000X-0.412500X-0.650000X0.412500X-0.650000X0.412500X0.650000X-0.412500X0.650000X0*%
%ADD58RoundRect,0.225000X0.017678X-0.335876X0.335876X-0.017678X-0.017678X0.335876X-0.335876X0.017678X0*%
%ADD59RoundRect,0.250000X0.070711X-0.565685X0.565685X-0.070711X-0.070711X0.565685X-0.565685X0.070711X0*%
%ADD60RoundRect,0.250000X-1.950000X-1.000000X1.950000X-1.000000X1.950000X1.000000X-1.950000X1.000000X0*%
%ADD61RoundRect,0.218750X0.381250X-0.218750X0.381250X0.218750X-0.381250X0.218750X-0.381250X-0.218750X0*%
%ADD62R,5.700000X2.400000*%
%ADD63RoundRect,0.250000X-0.325000X-0.650000X0.325000X-0.650000X0.325000X0.650000X-0.325000X0.650000X0*%
%ADD64RoundRect,0.250000X-0.475000X0.250000X-0.475000X-0.250000X0.475000X-0.250000X0.475000X0.250000X0*%
%ADD65FreePoly4,180.000000*%
%ADD66FreePoly5,180.000000*%
%ADD67RoundRect,0.243750X-0.243750X-0.456250X0.243750X-0.456250X0.243750X0.456250X-0.243750X0.456250X0*%
%ADD68RoundRect,0.225000X0.335876X0.017678X0.017678X0.335876X-0.335876X-0.017678X-0.017678X-0.335876X0*%
%ADD69RoundRect,0.200000X-0.053033X0.335876X-0.335876X0.053033X0.053033X-0.335876X0.335876X-0.053033X0*%
%ADD70RoundRect,0.250000X-0.450000X0.350000X-0.450000X-0.350000X0.450000X-0.350000X0.450000X0.350000X0*%
%ADD71RoundRect,0.062500X-0.355321X-0.443710X0.443710X0.355321X0.355321X0.443710X-0.443710X-0.355321X0*%
%ADD72RoundRect,0.062500X0.355321X-0.443710X0.443710X-0.355321X-0.355321X0.443710X-0.443710X0.355321X0*%
%ADD73RotRect,1.230000X1.230000X45.000000*%
%ADD74RoundRect,0.250000X-0.475000X0.337500X-0.475000X-0.337500X0.475000X-0.337500X0.475000X0.337500X0*%
%ADD75RoundRect,0.250000X0.159099X-0.512652X0.512652X-0.159099X-0.159099X0.512652X-0.512652X0.159099X0*%
%ADD76RoundRect,0.250000X0.262500X0.450000X-0.262500X0.450000X-0.262500X-0.450000X0.262500X-0.450000X0*%
%ADD77RoundRect,0.150000X-0.587500X-0.150000X0.587500X-0.150000X0.587500X0.150000X-0.587500X0.150000X0*%
%ADD78C,2.000000*%
%ADD79RoundRect,0.150000X-0.150000X0.512500X-0.150000X-0.512500X0.150000X-0.512500X0.150000X0.512500X0*%
%ADD80C,0.650000*%
%ADD81R,0.600000X1.450000*%
%ADD82R,0.300000X1.450000*%
%ADD83O,1.000000X2.100000*%
%ADD84O,1.000000X1.600000*%
%ADD85RoundRect,0.250000X0.450000X-0.262500X0.450000X0.262500X-0.450000X0.262500X-0.450000X-0.262500X0*%
%ADD86R,1.350000X1.350000*%
%ADD87O,1.350000X1.350000*%
%ADD88RoundRect,0.250000X0.325000X0.650000X-0.325000X0.650000X-0.325000X-0.650000X0.325000X-0.650000X0*%
%ADD89RoundRect,0.250000X1.000000X0.650000X-1.000000X0.650000X-1.000000X-0.650000X1.000000X-0.650000X0*%
%ADD90R,4.500000X2.000000*%
%ADD91R,2.200000X1.500000*%
%ADD92RoundRect,0.250000X-0.650000X0.412500X-0.650000X-0.412500X0.650000X-0.412500X0.650000X0.412500X0*%
%ADD93RoundRect,0.375000X-0.625000X-0.375000X0.625000X-0.375000X0.625000X0.375000X-0.625000X0.375000X0*%
%ADD94RoundRect,0.500000X-0.500000X-2.550000X0.500000X-2.550000X0.500000X2.550000X-0.500000X2.550000X0*%
%ADD95RoundRect,0.237500X-0.250000X-0.237500X0.250000X-0.237500X0.250000X0.237500X-0.250000X0.237500X0*%
%ADD96C,1.200000*%
%ADD97C,0.750000*%
%ADD98RoundRect,0.250000X0.750000X-0.600000X0.750000X0.600000X-0.750000X0.600000X-0.750000X-0.600000X0*%
%ADD99O,2.000000X1.700000*%
%ADD100C,0.900000*%
G04 APERTURE END LIST*
G04 #@! TO.C,JP1*
G36*
X31127600Y33387600D02*
G01*
X30827600Y33387600D01*
X30827600Y34887600D01*
X31127600Y34887600D01*
X31127600Y33387600D01*
G37*
G04 #@! TD*
D10*
G04 #@! TO.C,SW3*
X64750000Y27450000D03*
X59750000Y27450000D03*
X64750000Y13150000D03*
X59750000Y13150000D03*
G04 #@! TD*
D11*
G04 #@! TO.C,C43*
X68286551Y31075551D03*
X66943049Y29732049D03*
G04 #@! TD*
D12*
G04 #@! TO.C,R53*
X50893400Y39877200D03*
X50893400Y38052200D03*
G04 #@! TD*
D13*
G04 #@! TO.C,R31*
X58334400Y2489200D03*
X60334400Y2489200D03*
G04 #@! TD*
D14*
G04 #@! TO.C,IC1*
X41578600Y71327600D03*
X41578600Y70327600D03*
X41578600Y69327600D03*
X41578600Y68327600D03*
X41578600Y67327600D03*
X41578600Y66327600D03*
X41578600Y65327600D03*
X41578600Y64327600D03*
X41578600Y63327600D03*
X41578600Y62327600D03*
X41578600Y61327600D03*
X41578600Y60327600D03*
X41578600Y59327600D03*
X41578600Y58327600D03*
X41578600Y57327600D03*
X41578600Y56327600D03*
X41578600Y55327600D03*
D15*
X45578600Y51327600D03*
X46578600Y51327600D03*
X47578600Y51327600D03*
X48578600Y51327600D03*
X49578600Y51327600D03*
X50578600Y51327600D03*
X51578600Y51327600D03*
X52578600Y51327600D03*
X53578600Y51327600D03*
X54578600Y51327600D03*
X55578600Y51327600D03*
X56578600Y51327600D03*
X57578600Y51327600D03*
X58578600Y51327600D03*
X59578600Y51327600D03*
X60578600Y51327600D03*
X61578600Y51327600D03*
D14*
X65578600Y55327600D03*
X65578600Y56327600D03*
X65578600Y57327600D03*
X65578600Y58327600D03*
X65578600Y59327600D03*
X65578600Y60327600D03*
X65578600Y61327600D03*
X65578600Y62327600D03*
X65578600Y63327600D03*
X65578600Y64327600D03*
X65578600Y65327600D03*
X65578600Y66327600D03*
X65578600Y67327600D03*
X65578600Y68327600D03*
X65578600Y69327600D03*
X65578600Y70327600D03*
X65578600Y71327600D03*
D15*
X61578600Y75327600D03*
X60578600Y75327600D03*
X59578600Y75327600D03*
X58578600Y75327600D03*
X57578600Y75327600D03*
X56578600Y75327600D03*
X55578600Y75327600D03*
X54578600Y75327600D03*
X53578600Y75327600D03*
X52578600Y75327600D03*
X51578600Y75327600D03*
X50578600Y75327600D03*
X49578600Y75327600D03*
X48578600Y75327600D03*
X47578600Y75327600D03*
X46578600Y75327600D03*
X45578600Y75327600D03*
D16*
X45978600Y70927600D03*
X45978600Y67127600D03*
X45978600Y63327600D03*
X45978600Y59527600D03*
X45978600Y55727600D03*
X49778600Y55727600D03*
X53578600Y55727600D03*
X57378600Y55727600D03*
X61178600Y55727600D03*
X61178600Y59527600D03*
X61178600Y63327600D03*
X61178600Y67127600D03*
X61178600Y70927600D03*
X57378600Y70927600D03*
X53578600Y70927600D03*
X49778600Y70927600D03*
X49778600Y63327600D03*
X53578600Y59527600D03*
X57378600Y63327600D03*
X53578600Y67127600D03*
D15*
X42578600Y51327600D03*
X43578600Y51327600D03*
X44578600Y51327600D03*
X62578600Y51327600D03*
X63578600Y51327600D03*
X64578600Y51327600D03*
X64578600Y75327600D03*
X63578600Y75327600D03*
X62578600Y75327600D03*
X44578600Y75327600D03*
X43578600Y75327600D03*
X42578600Y75327600D03*
D17*
X43778600Y66827600D03*
X43778600Y65427600D03*
X43778600Y64027600D03*
X43778600Y62627600D03*
X43778600Y61227600D03*
X43778600Y59827600D03*
D18*
X50078600Y53527600D03*
X51478600Y53527600D03*
X52878600Y53527600D03*
X54278600Y53527600D03*
X55678600Y53527600D03*
X57078600Y53527600D03*
D17*
X63378600Y59827600D03*
X63378600Y61227600D03*
X63378600Y62627600D03*
X63378600Y64027600D03*
X63378600Y65427600D03*
X63378600Y66827600D03*
D18*
X57078600Y73127600D03*
X55678600Y73127600D03*
X54278600Y73127600D03*
X52878600Y73127600D03*
X51478600Y73127600D03*
X50078600Y73127600D03*
G04 #@! TD*
D19*
G04 #@! TO.C,C39*
X59859600Y35156600D03*
X59859600Y37056600D03*
G04 #@! TD*
D20*
G04 #@! TO.C,FB2*
X71374000Y38222700D03*
X71374000Y36097700D03*
G04 #@! TD*
D21*
G04 #@! TO.C,R33*
X37109400Y31305000D03*
X37109400Y29655000D03*
G04 #@! TD*
D22*
G04 #@! TO.C,R44*
X13309600Y9222100D03*
X13309600Y11047100D03*
G04 #@! TD*
D23*
G04 #@! TO.C,H6*
X72350000Y86425000D03*
G04 #@! TD*
D24*
G04 #@! TO.C,R21*
X71144400Y20688800D03*
X69494400Y20688800D03*
G04 #@! TD*
D25*
G04 #@! TO.C,R51*
X52912000Y41630600D03*
X54737000Y41630600D03*
G04 #@! TD*
D26*
G04 #@! TO.C,TP5*
X63982600Y48793400D03*
G04 #@! TD*
D27*
G04 #@! TO.C,C17*
X48095200Y24815800D03*
X46545200Y24815800D03*
G04 #@! TD*
D28*
G04 #@! TO.C,Q10*
X5715000Y17348200D03*
X3815000Y17348200D03*
X4765000Y15473200D03*
G04 #@! TD*
D29*
G04 #@! TO.C,U6*
X20325000Y58590000D03*
X22865000Y58590000D03*
X25405000Y58590000D03*
X27945000Y58590000D03*
X30485000Y58590000D03*
X33025000Y58590000D03*
X33025000Y74090000D03*
X30485000Y74090000D03*
X27945000Y74090000D03*
X25405000Y74090000D03*
X22865000Y74090000D03*
X20325000Y74090000D03*
D30*
X33925000Y62530000D03*
X33925000Y64170000D03*
X33925000Y68510000D03*
X33925000Y70150000D03*
D31*
X17975000Y61940000D03*
X17975000Y64140000D03*
X17975000Y66340000D03*
X17975000Y68540000D03*
X17975000Y70740000D03*
X20175000Y61940000D03*
X20175000Y64140000D03*
X20175000Y66340000D03*
X20175000Y68540000D03*
X20175000Y70740000D03*
X22375000Y61940000D03*
X22375000Y64140000D03*
X22375000Y66340000D03*
X22375000Y68540000D03*
X22375000Y70740000D03*
D32*
X24575000Y61940000D03*
D33*
X24575000Y70740000D03*
D34*
X26775000Y61940000D03*
D35*
X26775000Y70740000D03*
D31*
X28975000Y61940000D03*
X28975000Y64140000D03*
X28975000Y66340000D03*
X28975000Y68540000D03*
X28975000Y70740000D03*
X31175000Y61940000D03*
X31175000Y64140000D03*
X31175000Y66340000D03*
X31175000Y68540000D03*
X31175000Y70740000D03*
G04 #@! TD*
D26*
G04 #@! TO.C,TP6*
X39725600Y78663800D03*
G04 #@! TD*
D36*
G04 #@! TO.C,R36*
X36927800Y43434000D03*
X35102800Y43434000D03*
G04 #@! TD*
D37*
G04 #@! TO.C,J11*
X73050000Y75540000D03*
D38*
X73050000Y73000000D03*
X73050000Y70460000D03*
X73050000Y67920000D03*
X73050000Y65380000D03*
X73050000Y62840000D03*
G04 #@! TD*
D23*
G04 #@! TO.C,H5*
X3825000Y56000000D03*
G04 #@! TD*
D39*
G04 #@! TO.C,D9*
X43586400Y42817800D03*
X43586400Y38817800D03*
G04 #@! TD*
D40*
G04 #@! TO.C,C46*
X33553400Y82423000D03*
X25153400Y82423000D03*
G04 #@! TD*
D41*
G04 #@! TO.C,Q6*
X55623700Y4587200D03*
X55623700Y6487200D03*
X53748700Y5537200D03*
G04 #@! TD*
D42*
G04 #@! TO.C,C38*
X54751000Y39522400D03*
X52851000Y39522400D03*
G04 #@! TD*
D23*
G04 #@! TO.C,H3*
X3825000Y86400000D03*
G04 #@! TD*
D43*
G04 #@! TO.C,U1*
X70170800Y8321099D03*
X71440800Y8321100D03*
X72710800Y8321100D03*
X73980800Y8321099D03*
X73980800Y13596101D03*
X72710800Y13596100D03*
X71440800Y13596100D03*
X70170800Y13596101D03*
D44*
X72075800Y10958600D03*
G04 #@! TD*
D45*
G04 #@! TO.C,R11*
X64875000Y81575000D03*
X66525000Y81575000D03*
G04 #@! TD*
G04 #@! TO.C,R35*
X25387800Y13157200D03*
X27037800Y13157200D03*
G04 #@! TD*
D46*
G04 #@! TO.C,J8*
X19375000Y84775000D03*
D47*
X22200000Y84575000D03*
X16550000Y84575000D03*
G04 #@! TD*
D19*
G04 #@! TO.C,C28*
X32731400Y39697800D03*
X32731400Y41597800D03*
G04 #@! TD*
D48*
G04 #@! TO.C,U5*
X9870000Y35150000D03*
X11140000Y35150000D03*
X12410000Y35150000D03*
X13680000Y35150000D03*
X14950000Y35150000D03*
X16220000Y35150000D03*
X17490000Y35150000D03*
X18760000Y35150000D03*
X20030000Y35150000D03*
X21300000Y35150000D03*
X22570000Y35150000D03*
X23840000Y35150000D03*
X25110000Y35150000D03*
X26380000Y35150000D03*
D49*
X27630000Y36915000D03*
X27630000Y38185000D03*
X27630000Y39455000D03*
X27630000Y40725000D03*
X27630000Y41995000D03*
X27630000Y43265000D03*
X27630000Y44535000D03*
X27630000Y45805000D03*
X27630000Y47075000D03*
X27630000Y48345000D03*
X27630000Y49615000D03*
X27630000Y50885000D03*
D48*
X26380000Y52650000D03*
X25110000Y52650000D03*
X23840000Y52650000D03*
X22570000Y52650000D03*
X21300000Y52650000D03*
X20030000Y52650000D03*
X18760000Y52650000D03*
X17490000Y52650000D03*
X16220000Y52650000D03*
X14950000Y52650000D03*
X13680000Y52650000D03*
X12410000Y52650000D03*
X11140000Y52650000D03*
X9870000Y52650000D03*
D50*
X17590000Y42400000D03*
X17590000Y41000000D03*
X17590000Y43800000D03*
X18990000Y41000000D03*
X18990000Y42400000D03*
X18990000Y43800000D03*
X16190000Y41000000D03*
X16190000Y42400000D03*
X16190000Y43800000D03*
G04 #@! TD*
D51*
G04 #@! TO.C,U9*
X29460000Y8130000D03*
X29460000Y10670000D03*
X21840000Y5590000D03*
X29460000Y5590000D03*
X21840000Y8130000D03*
X21840000Y10670000D03*
G04 #@! TD*
D52*
G04 #@! TO.C,C15*
X68351400Y11671600D03*
X68351400Y10121600D03*
G04 #@! TD*
D53*
G04 #@! TO.C,R46*
X20473237Y79882163D03*
X21639963Y78715437D03*
G04 #@! TD*
D24*
G04 #@! TO.C,R59*
X5550000Y19508200D03*
X3900000Y19508200D03*
G04 #@! TD*
D54*
G04 #@! TO.C,U7*
X57776800Y37058600D03*
X56506800Y37058600D03*
X55236800Y37058600D03*
X53966800Y37058600D03*
X53966800Y32108600D03*
X55236800Y32108600D03*
X56506800Y32108600D03*
X57776800Y32108600D03*
D55*
X55871800Y34583600D03*
G04 #@! TD*
D56*
G04 #@! TO.C,C29*
X39266400Y43847800D03*
X39266400Y40897800D03*
G04 #@! TD*
D22*
G04 #@! TO.C,R43*
X11125200Y9272900D03*
X11125200Y11097900D03*
G04 #@! TD*
D57*
G04 #@! TO.C,C18*
X50532900Y24815800D03*
X53657900Y24815800D03*
G04 #@! TD*
D37*
G04 #@! TO.C,J9*
X3500000Y75540000D03*
D38*
X3500000Y73000000D03*
X3500000Y70460000D03*
X3500000Y67920000D03*
X3500000Y65380000D03*
X3500000Y62840000D03*
X3500000Y60300000D03*
G04 #@! TD*
D13*
G04 #@! TO.C,R37*
X33448900Y43392800D03*
X31448900Y43392800D03*
G04 #@! TD*
D58*
G04 #@! TO.C,C33*
X18349592Y79868392D03*
X19445608Y80964408D03*
G04 #@! TD*
D59*
G04 #@! TO.C,R57*
X64570893Y30357093D03*
X65985107Y31771307D03*
G04 #@! TD*
D60*
G04 #@! TO.C,C34*
X42933400Y82372200D03*
X51333400Y82372200D03*
G04 #@! TD*
D27*
G04 #@! TO.C,C26*
X31636000Y31953200D03*
X30086000Y31953200D03*
G04 #@! TD*
D45*
G04 #@! TO.C,R56*
X47291800Y39873600D03*
X48941800Y39873600D03*
G04 #@! TD*
D19*
G04 #@! TO.C,C25*
X18415000Y29514800D03*
X18415000Y31414800D03*
G04 #@! TD*
D24*
G04 #@! TO.C,R34*
X27057800Y15072200D03*
X25407800Y15072200D03*
G04 #@! TD*
D61*
G04 #@! TO.C,FB3*
X71653400Y44962300D03*
X71653400Y47087300D03*
G04 #@! TD*
D62*
G04 #@! TO.C,L1*
X43391400Y31367800D03*
X43391400Y35567800D03*
G04 #@! TD*
D63*
G04 #@! TO.C,C32*
X57198999Y29895800D03*
X60149001Y29895800D03*
G04 #@! TD*
D64*
G04 #@! TO.C,C45*
X73736200Y47000200D03*
X73736200Y45100200D03*
G04 #@! TD*
D63*
G04 #@! TO.C,C27*
X35901400Y36452800D03*
X38851400Y36452800D03*
G04 #@! TD*
D65*
G04 #@! TO.C,JP1*
X31627600Y34137600D03*
D66*
X30327600Y34137600D03*
G04 #@! TD*
D67*
G04 #@! TO.C,D10*
X38928900Y38807800D03*
X40803900Y38807800D03*
G04 #@! TD*
D25*
G04 #@! TO.C,R48*
X56569600Y41605200D03*
X58394600Y41605200D03*
G04 #@! TD*
D41*
G04 #@! TO.C,Q7*
X23684600Y13192600D03*
X23684600Y15092600D03*
X21809600Y14142600D03*
G04 #@! TD*
D19*
G04 #@! TO.C,C44*
X73507600Y36286400D03*
X73507600Y38186400D03*
G04 #@! TD*
D24*
G04 #@! TO.C,R60*
X5470000Y13468200D03*
X3820000Y13468200D03*
G04 #@! TD*
D22*
G04 #@! TO.C,R42*
X15468600Y9272900D03*
X15468600Y11097900D03*
G04 #@! TD*
D45*
G04 #@! TO.C,R45*
X51981600Y27660600D03*
X53631600Y27660600D03*
G04 #@! TD*
D68*
G04 #@! TO.C,C48*
X58129808Y80782792D03*
X57033792Y81878808D03*
G04 #@! TD*
D69*
G04 #@! TO.C,R52*
X56031563Y80847363D03*
X54864837Y79680637D03*
G04 #@! TD*
D63*
G04 #@! TO.C,C40*
X54328800Y43967400D03*
X57278800Y43967400D03*
G04 #@! TD*
D57*
G04 #@! TO.C,C13*
X50609100Y14706600D03*
X53734100Y14706600D03*
G04 #@! TD*
D10*
G04 #@! TO.C,SW1*
X16750000Y27450000D03*
X11750000Y27450000D03*
X16750000Y13150000D03*
X11750000Y13150000D03*
G04 #@! TD*
D70*
G04 #@! TO.C,R30*
X57962800Y7670800D03*
X57962800Y5670800D03*
G04 #@! TD*
D26*
G04 #@! TO.C,TP1*
X37750000Y52525000D03*
G04 #@! TD*
D71*
G04 #@! TO.C,U8*
X66200474Y34340800D03*
X66551199Y33990075D03*
X66907580Y33633693D03*
X67261134Y33280140D03*
D72*
X68535340Y33280140D03*
X68888894Y33633693D03*
X69242447Y33987246D03*
X69596000Y34340800D03*
D71*
X69596000Y35615006D03*
X69242447Y35968560D03*
X68886065Y36324941D03*
X68535340Y36675666D03*
D72*
X67261134Y36675666D03*
X66907580Y36322113D03*
X66551199Y35965731D03*
X66200474Y35615006D03*
D73*
X67898237Y34977903D03*
G04 #@! TD*
D28*
G04 #@! TO.C,Q9*
X5715000Y23383200D03*
X3815000Y23383200D03*
X4765000Y21508200D03*
G04 #@! TD*
D74*
G04 #@! TO.C,C16*
X69926200Y25497700D03*
X69926200Y23422700D03*
G04 #@! TD*
D54*
G04 #@! TO.C,U3*
X30649000Y24446000D03*
X29379000Y24446000D03*
X28109000Y24446000D03*
X26839000Y24446000D03*
X25569000Y24446000D03*
X24299000Y24446000D03*
X23029000Y24446000D03*
X21759000Y24446000D03*
X21759000Y19496000D03*
X23029000Y19496000D03*
X24299000Y19496000D03*
X25569000Y19496000D03*
X26839000Y19496000D03*
X28109000Y19496000D03*
X29379000Y19496000D03*
X30649000Y19496000D03*
G04 #@! TD*
D75*
G04 #@! TO.C,C42*
X68086049Y27827049D03*
X69429551Y29170551D03*
G04 #@! TD*
D24*
G04 #@! TO.C,R3*
X58102000Y10312400D03*
X56452000Y10312400D03*
G04 #@! TD*
D26*
G04 #@! TO.C,TP2*
X50925000Y48742600D03*
G04 #@! TD*
D76*
G04 #@! TO.C,R49*
X55375800Y29794200D03*
X53550800Y29794200D03*
G04 #@! TD*
D37*
G04 #@! TO.C,J7*
X70713600Y2286000D03*
D38*
X70713600Y4826000D03*
X73253600Y2286000D03*
X73253600Y4826000D03*
G04 #@! TD*
D24*
G04 #@! TO.C,R20*
X74192400Y20675600D03*
X72542400Y20675600D03*
G04 #@! TD*
D77*
G04 #@! TO.C,Q8*
X28739200Y15118000D03*
X28739200Y13218000D03*
X30614200Y14168000D03*
G04 #@! TD*
D39*
G04 #@! TO.C,D12*
X62814200Y36925000D03*
X62814200Y32925000D03*
G04 #@! TD*
D45*
G04 #@! TO.C,R32*
X11646400Y32842200D03*
X13296400Y32842200D03*
G04 #@! TD*
D78*
G04 #@! TO.C,SW2*
X42725000Y20300000D03*
X33725000Y20300000D03*
D10*
X40725000Y27450000D03*
X35725000Y27450000D03*
X40725000Y13150000D03*
X35725000Y13150000D03*
G04 #@! TD*
D23*
G04 #@! TO.C,H8*
X72100000Y31200000D03*
G04 #@! TD*
D24*
G04 #@! TO.C,R12*
X66525000Y79625000D03*
X64875000Y79625000D03*
G04 #@! TD*
D23*
G04 #@! TO.C,H7*
X36325000Y47875000D03*
G04 #@! TD*
D58*
G04 #@! TO.C,C31*
X21549992Y76642592D03*
X22646008Y77738608D03*
G04 #@! TD*
D23*
G04 #@! TO.C,H1*
X4650000Y31400000D03*
G04 #@! TD*
G04 #@! TO.C,H4*
X72350000Y54800000D03*
G04 #@! TD*
D79*
G04 #@! TO.C,U4*
X36811400Y41547800D03*
X35861400Y41547800D03*
X34911400Y41547800D03*
X34911400Y39272800D03*
X35861400Y39272800D03*
X36811400Y39272800D03*
G04 #@! TD*
D27*
G04 #@! TO.C,C14*
X48171400Y14706600D03*
X46621400Y14706600D03*
G04 #@! TD*
D46*
G04 #@! TO.C,J3*
X57100000Y84775000D03*
D47*
X59925000Y84575000D03*
X54275000Y84575000D03*
G04 #@! TD*
D80*
G04 #@! TO.C,J5*
X35360000Y6970000D03*
X41140000Y6970000D03*
D81*
X35000000Y8415000D03*
X35800000Y8415000D03*
D82*
X37000000Y8415000D03*
X38000000Y8415000D03*
X38500000Y8415000D03*
X39500000Y8415000D03*
D81*
X40700000Y8415000D03*
X41500000Y8415000D03*
X41500000Y8415000D03*
X40700000Y8415000D03*
D82*
X40000000Y8415000D03*
X39000000Y8415000D03*
X37500000Y8415000D03*
X36500000Y8415000D03*
D81*
X35800000Y8415000D03*
X35000000Y8415000D03*
D83*
X33930000Y7500000D03*
D84*
X33930000Y3320000D03*
D83*
X42570000Y7500000D03*
D84*
X42570000Y3320000D03*
G04 #@! TD*
D85*
G04 #@! TO.C,R54*
X51536600Y34114100D03*
X51536600Y35939100D03*
G04 #@! TD*
D23*
G04 #@! TO.C,H2*
X49300000Y10275000D03*
G04 #@! TD*
D86*
G04 #@! TO.C,J4*
X70958200Y18135600D03*
D87*
X72958200Y18135600D03*
G04 #@! TD*
D67*
G04 #@! TO.C,D7*
X37416500Y86563200D03*
X39291500Y86563200D03*
G04 #@! TD*
D45*
G04 #@! TO.C,R58*
X3900000Y25418200D03*
X5550000Y25418200D03*
G04 #@! TD*
D88*
G04 #@! TO.C,C41*
X50903400Y43942000D03*
X47953400Y43942000D03*
G04 #@! TD*
D27*
G04 #@! TO.C,C23*
X14821200Y30962600D03*
X13271200Y30962600D03*
G04 #@! TD*
D89*
G04 #@! TO.C,D8*
X50895000Y4216400D03*
X46895000Y4216400D03*
G04 #@! TD*
D26*
G04 #@! TO.C,TP3*
X53275000Y48793400D03*
G04 #@! TD*
D90*
G04 #@! TO.C,Y1*
X21962800Y28473400D03*
X30462800Y28473400D03*
G04 #@! TD*
D91*
G04 #@! TO.C,L2*
X63427600Y39650200D03*
X63427600Y46050200D03*
G04 #@! TD*
D26*
G04 #@! TO.C,TP4*
X55575000Y48793400D03*
G04 #@! TD*
D64*
G04 #@! TO.C,C21*
X34010600Y31684000D03*
X34010600Y29784000D03*
G04 #@! TD*
D92*
G04 #@! TO.C,C24*
X9474200Y33007700D03*
X9474200Y29882700D03*
G04 #@! TD*
D93*
G04 #@! TO.C,U2*
X47116600Y22010400D03*
X47116600Y19710400D03*
D94*
X53416600Y19710400D03*
D93*
X47116600Y17410400D03*
G04 #@! TD*
D76*
G04 #@! TO.C,R47*
X58394600Y39497000D03*
X56569600Y39497000D03*
G04 #@! TD*
D95*
G04 #@! TO.C,R40*
X39754800Y45745400D03*
X41579800Y45745400D03*
G04 #@! TD*
D52*
G04 #@! TO.C,C20*
X11633200Y31407400D03*
X11633200Y29857400D03*
G04 #@! TD*
D27*
G04 #@! TO.C,C22*
X30721600Y17018000D03*
X29171600Y17018000D03*
G04 #@! TD*
D68*
G04 #@! TO.C,C47*
X54940200Y77546200D03*
X53844184Y78642216D03*
G04 #@! TD*
D96*
G04 #@! TO.C,BT1*
X25679400Y70060200D03*
X25679400Y62560200D03*
G04 #@! TD*
D97*
G04 #@! TO.C,J1*
X64109600Y3378000D03*
X55609600Y3378000D03*
G04 #@! TD*
D98*
G04 #@! TO.C,J6*
X72237600Y23291800D03*
D99*
X72237600Y25791800D03*
G04 #@! TD*
D98*
G04 #@! TO.C,J12*
X71856600Y40426000D03*
D99*
X71856600Y42926000D03*
G04 #@! TD*
D100*
G04 #@! TO.C,P1*
X16002000Y6172200D03*
X8002000Y6172200D03*
G04 #@! TD*
M02*
